<svg xmlns="http://www.w3.org/2000/svg" xmlns:xlink="http://www.w3.org/1999/xlink" width="100" zoomAndPan="magnify" viewBox="0 0 75 74.999997" height="100" preserveAspectRatio="xMidYMid meet" version="1.0"><defs><clipPath id="84bf4239c3"><path d="M 11.300781 11.417969 L 63.707031 11.417969 L 63.707031 63.582031 L 11.300781 63.582031 Z M 11.300781 11.417969 " clip-rule="nonzero"/></clipPath><clipPath id="134971d983"><path d="M 37.5 13.355469 C 50.769531 13.355469 61.53125 24.117188 61.53125 37.386719 C 61.53125 50.65625 50.769531 61.417969 37.5 61.417969 C 24.230469 61.417969 13.472656 50.65625 13.472656 37.386719 C 13.472656 24.117188 24.230469 13.355469 37.5 13.355469 Z M 34 11.585938 C 21.28125 13.296875 11.472656 24.195312 11.472656 37.386719 C 11.472656 51.757812 23.121094 63.417969 37.5 63.417969 C 51.882812 63.417969 63.53125 51.757812 63.53125 37.386719 C 63.53125 24.195312 53.722656 13.296875 41 11.585938 Z M 34 11.585938 " clip-rule="nonzero"/></clipPath><clipPath id="4a6afa7e9f"><path d="M 24.34375 25.664062 L 50.667969 25.664062 L 50.667969 49.09375 L 24.34375 49.09375 Z M 24.34375 25.664062 " clip-rule="nonzero"/></clipPath><clipPath id="003a8d444e"><path d="M 50.230469 47.117188 L 49.082031 47.117188 L 49.082031 32.207031 C 49.082031 32.046875 48.949219 31.925781 48.789062 31.925781 L 44.082031 31.925781 L 44.082031 25.976562 C 44.082031 25.816406 43.949219 25.695312 43.800781 25.695312 L 31.199219 25.695312 C 31.039062 25.695312 30.921875 25.828125 30.921875 25.976562 L 30.921875 31.917969 L 26.199219 31.917969 C 26.039062 31.917969 25.921875 32.046875 25.921875 32.195312 L 25.921875 47.117188 L 24.769531 47.117188 L 24.492188 47.246094 L 24.492188 48.785156 L 24.621094 49.066406 L 50.230469 49.066406 C 50.390625 49.066406 50.511719 48.9375 50.511719 48.785156 L 50.511719 47.398438 L 50.382812 47.117188 M 44.082031 32.488281 L 48.519531 32.488281 L 48.519531 47.117188 L 44.082031 47.117188 Z M 31.492188 32.207031 L 31.492188 26.265625 L 43.511719 26.265625 L 43.511719 47.117188 L 40.019531 47.117188 L 40.019531 40.15625 C 40.019531 39.996094 39.890625 39.875 39.742188 39.875 L 35.261719 39.875 C 35.101562 39.875 34.980469 40.007812 34.980469 40.15625 L 34.980469 47.117188 L 31.492188 47.117188 Z M 39.460938 47.117188 L 35.539062 47.117188 L 35.539062 40.4375 L 39.460938 40.4375 Z M 26.480469 32.488281 L 30.921875 32.488281 L 30.921875 47.117188 L 26.480469 47.117188 Z M 49.949219 48.507812 L 25.050781 48.507812 L 25.050781 47.6875 L 49.949219 47.6875 Z M 49.949219 48.507812 " clip-rule="nonzero"/></clipPath><clipPath id="dc767f45ab"><path d="M 32.554688 27.113281 L 36.902344 27.113281 L 36.902344 31.460938 L 32.554688 31.460938 Z M 32.554688 27.113281 " clip-rule="nonzero"/></clipPath><clipPath id="377624cd1c"><path d="M 32.941406 31.316406 L 36.402344 31.316406 C 36.5625 31.316406 36.679688 31.1875 36.679688 31.035156 L 36.679688 27.566406 C 36.679688 27.40625 36.550781 27.285156 36.402344 27.285156 L 32.941406 27.285156 C 32.78125 27.285156 32.660156 27.417969 32.660156 27.566406 L 32.660156 31.035156 C 32.660156 31.195312 32.789062 31.316406 32.941406 31.316406 " clip-rule="nonzero"/></clipPath><clipPath id="adefff3089"><path d="M 38.109375 27.113281 L 42.457031 27.113281 L 42.457031 31.460938 L 38.109375 31.460938 Z M 38.109375 27.113281 " clip-rule="nonzero"/></clipPath><clipPath id="f28f46f167"><path d="M 38.589844 31.316406 L 42.0625 31.316406 C 42.222656 31.316406 42.339844 31.1875 42.339844 31.035156 L 42.339844 27.566406 C 42.339844 27.40625 42.210938 27.285156 42.0625 27.285156 L 38.589844 27.285156 C 38.429688 27.285156 38.3125 27.417969 38.3125 27.566406 L 38.3125 31.035156 C 38.3125 31.195312 38.441406 31.316406 38.589844 31.316406 " clip-rule="nonzero"/></clipPath><clipPath id="766a25544c"><path d="M 32.554688 33.152344 L 36.902344 33.152344 L 36.902344 37.5 L 32.554688 37.5 Z M 32.554688 33.152344 " clip-rule="nonzero"/></clipPath><clipPath id="5b3b6a3cf1"><path d="M 36.691406 37.007812 L 36.691406 33.546875 C 36.691406 33.386719 36.5625 33.265625 36.410156 33.265625 L 32.941406 33.265625 C 32.78125 33.265625 32.660156 33.398438 32.660156 33.546875 L 32.660156 37.007812 C 32.660156 37.167969 32.789062 37.285156 32.941406 37.285156 L 36.410156 37.285156 C 36.5625 37.285156 36.691406 37.15625 36.691406 37.007812 " clip-rule="nonzero"/></clipPath><clipPath id="7f0c821d59"><path d="M 27.480469 33.636719 L 29.898438 33.636719 L 29.898438 36.292969 L 27.480469 36.292969 Z M 27.480469 33.636719 " clip-rule="nonzero"/></clipPath><clipPath id="dddec158c5"><path d="M 29.851562 35.996094 L 29.851562 34.015625 C 29.851562 33.925781 29.78125 33.855469 29.691406 33.855469 L 27.710938 33.855469 C 27.621094 33.855469 27.550781 33.925781 27.550781 34.015625 L 27.550781 35.996094 C 27.550781 36.085938 27.621094 36.15625 27.710938 36.15625 L 29.691406 36.15625 C 29.78125 36.15625 29.851562 36.085938 29.851562 35.996094 " clip-rule="nonzero"/></clipPath><clipPath id="9f370118e6"><path d="M 45.113281 33.636719 L 47.527344 33.636719 L 47.527344 36.292969 L 45.113281 36.292969 Z M 45.113281 33.636719 " clip-rule="nonzero"/></clipPath><clipPath id="1e4f5b2e3c"><path d="M 47.441406 35.996094 L 47.441406 34.015625 C 47.441406 33.925781 47.371094 33.855469 47.28125 33.855469 L 45.3125 33.855469 C 45.222656 33.855469 45.152344 33.925781 45.152344 34.015625 L 45.152344 35.996094 C 45.152344 36.085938 45.222656 36.15625 45.3125 36.15625 L 47.289062 36.15625 C 47.382812 36.15625 47.449219 36.085938 47.449219 35.996094 " clip-rule="nonzero"/></clipPath><clipPath id="ec1f922b29"><path d="M 27.480469 37.742188 L 29.898438 37.742188 L 29.898438 40.398438 L 27.480469 40.398438 Z M 27.480469 37.742188 " clip-rule="nonzero"/></clipPath><clipPath id="2138ceed4d"><path d="M 29.851562 39.996094 L 29.851562 38.027344 C 29.851562 37.9375 29.78125 37.867188 29.691406 37.867188 L 27.710938 37.867188 C 27.621094 37.867188 27.550781 37.9375 27.550781 38.027344 L 27.550781 40.007812 C 27.550781 40.097656 27.621094 40.167969 27.710938 40.167969 L 29.691406 40.167969 C 29.78125 40.167969 29.851562 40.097656 29.851562 40.007812 " clip-rule="nonzero"/></clipPath><clipPath id="d097b2b1e3"><path d="M 45.113281 37.742188 L 47.527344 37.742188 L 47.527344 40.398438 L 45.113281 40.398438 Z M 45.113281 37.742188 " clip-rule="nonzero"/></clipPath><clipPath id="3d7603daf1"><path d="M 47.441406 39.996094 L 47.441406 38.027344 C 47.441406 37.9375 47.371094 37.867188 47.28125 37.867188 L 45.3125 37.867188 C 45.222656 37.867188 45.152344 37.9375 45.152344 38.027344 L 45.152344 40.007812 C 45.152344 40.097656 45.222656 40.167969 45.3125 40.167969 L 47.289062 40.167969 C 47.382812 40.167969 47.449219 40.097656 47.449219 40.007812 " clip-rule="nonzero"/></clipPath><clipPath id="7e0e88f0d6"><path d="M 38.109375 33.152344 L 42.457031 33.152344 L 42.457031 37.5 L 38.109375 37.5 Z M 38.109375 33.152344 " clip-rule="nonzero"/></clipPath><clipPath id="1c96ac91d2"><path d="M 38.589844 37.296875 L 42.0625 37.296875 C 42.222656 37.296875 42.339844 37.167969 42.339844 37.015625 L 42.339844 33.546875 C 42.339844 33.386719 42.210938 33.265625 42.0625 33.265625 L 38.589844 33.265625 C 38.429688 33.265625 38.3125 33.398438 38.3125 33.546875 L 38.3125 37.015625 C 38.3125 37.167969 38.441406 37.296875 38.589844 37.296875 " clip-rule="nonzero"/></clipPath></defs><g clip-path="url(#84bf4239c3)"><g clip-path="url(#134971d983)"><path fill="#1f1b44" d="M 6.472656 6.585938 L 68.539062 6.585938 L 68.539062 68.414062 L 6.472656 68.414062 Z M 6.472656 6.585938 " fill-opacity="1" fill-rule="nonzero"/></g></g><g clip-path="url(#4a6afa7e9f)"><g clip-path="url(#003a8d444e)"><path fill="#1f1b44" d="M 6.472656 6.585938 L 68.539062 6.585938 L 68.539062 68.414062 L 6.472656 68.414062 Z M 6.472656 6.585938 " fill-opacity="1" fill-rule="nonzero"/></g></g><g clip-path="url(#dc767f45ab)"><g clip-path="url(#377624cd1c)"><path fill="#e66225" d="M 6.472656 6.585938 L 68.539062 6.585938 L 68.539062 68.414062 L 6.472656 68.414062 Z M 6.472656 6.585938 " fill-opacity="1" fill-rule="nonzero"/></g></g><g clip-path="url(#adefff3089)"><g clip-path="url(#f28f46f167)"><path fill="#e66225" d="M 6.472656 6.585938 L 68.539062 6.585938 L 68.539062 68.414062 L 6.472656 68.414062 Z M 6.472656 6.585938 " fill-opacity="1" fill-rule="nonzero"/></g></g><g clip-path="url(#766a25544c)"><g clip-path="url(#5b3b6a3cf1)"><path fill="#e66225" d="M 6.472656 6.585938 L 68.539062 6.585938 L 68.539062 68.414062 L 6.472656 68.414062 Z M 6.472656 6.585938 " fill-opacity="1" fill-rule="nonzero"/></g></g><g clip-path="url(#7f0c821d59)"><g clip-path="url(#dddec158c5)"><path fill="#e66225" d="M 6.472656 6.585938 L 68.539062 6.585938 L 68.539062 68.414062 L 6.472656 68.414062 Z M 6.472656 6.585938 " fill-opacity="1" fill-rule="nonzero"/></g></g><g clip-path="url(#9f370118e6)"><g clip-path="url(#1e4f5b2e3c)"><path fill="#e66225" d="M 6.472656 6.585938 L 68.539062 6.585938 L 68.539062 68.414062 L 6.472656 68.414062 Z M 6.472656 6.585938 " fill-opacity="1" fill-rule="nonzero"/></g></g><g clip-path="url(#ec1f922b29)"><g clip-path="url(#2138ceed4d)"><path fill="#e66225" d="M 6.472656 6.585938 L 68.539062 6.585938 L 68.539062 68.414062 L 6.472656 68.414062 Z M 6.472656 6.585938 " fill-opacity="1" fill-rule="nonzero"/></g></g><g clip-path="url(#d097b2b1e3)"><g clip-path="url(#3d7603daf1)"><path fill="#e66225" d="M 6.472656 6.585938 L 68.539062 6.585938 L 68.539062 68.414062 L 6.472656 68.414062 Z M 6.472656 6.585938 " fill-opacity="1" fill-rule="nonzero"/></g></g><g clip-path="url(#7e0e88f0d6)"><g clip-path="url(#1c96ac91d2)"><path fill="#e66225" d="M 6.472656 6.585938 L 68.539062 6.585938 L 68.539062 68.414062 L 6.472656 68.414062 Z M 6.472656 6.585938 " fill-opacity="1" fill-rule="nonzero"/></g></g></svg>