<svg xmlns="http://www.w3.org/2000/svg" xmlns:xlink="http://www.w3.org/1999/xlink" width="100" zoomAndPan="magnify" viewBox="0 0 75 74.999997" height="100" preserveAspectRatio="xMidYMid meet" version="1.0"><defs><clipPath id="4b45485ada"><path d="M 11.320312 11.320312 L 63.679688 11.320312 L 63.679688 63.679688 L 11.320312 63.679688 Z M 11.320312 11.320312 " clip-rule="nonzero"/></clipPath><clipPath id="77c4009a40"><path d="M 37.5 61.53125 C 50.769531 61.53125 61.53125 50.769531 61.53125 37.5 L 62.53125 37.5 L 61.53125 37.5 C 61.53125 24.230469 50.769531 13.46875 37.5 13.46875 C 24.230469 13.46875 13.472656 24.230469 13.472656 37.5 L 12.472656 37.5 L 13.472656 37.5 C 13.472656 50.769531 24.230469 61.53125 37.5 61.53125 L 37.5 62.53125 L 37.5 61.53125 M 37.5 63.53125 C 23.121094 63.53125 11.472656 51.878906 11.472656 37.5 C 11.472656 23.121094 23.121094 11.46875 37.5 11.46875 C 51.882812 11.46875 63.53125 23.121094 63.53125 37.5 C 63.53125 51.878906 51.871094 63.53125 37.5 63.53125 Z M 37.5 63.53125 " clip-rule="nonzero"/></clipPath><clipPath id="270699db09"><path d="M 25 28.046875 L 48.164062 28.046875 L 48.164062 50.832031 L 25 50.832031 Z M 25 28.046875 " clip-rule="nonzero"/></clipPath><clipPath id="49e45f1d98"><path d="M 47.480469 50.75 L 25.011719 50.75 L 25.011719 28.089844 L 42.871094 28.089844 C 43.191406 28.089844 43.453125 28.351562 43.453125 28.671875 L 43.191406 29.25 L 25.601562 29.25 L 25.601562 28.671875 L 26.179688 28.671875 L 26.179688 50.171875 L 25.601562 50.171875 L 25.601562 49.589844 L 47.480469 49.589844 C 47.800781 49.589844 48.0625 49.851562 48.0625 50.171875 L 47.800781 50.75 Z M 47.480469 50.75 " clip-rule="nonzero"/></clipPath><clipPath id="310ec2031b"><path d="M 44.53125 25.621094 L 50 25.621094 L 50 50.832031 L 44.53125 50.832031 Z M 44.53125 25.621094 " clip-rule="nonzero"/></clipPath><clipPath id="e7d6f64cc8"><path d="M 48.820312 47.859375 L 48.820312 28.46875 L 49.402344 28.46875 L 48.820312 28.46875 C 48.820312 27.628906 48.140625 26.941406 47.292969 26.941406 C 46.441406 26.941406 45.761719 27.621094 45.761719 28.46875 L 45.179688 28.46875 L 45.761719 28.46875 L 45.761719 48.050781 L 44.589844 48.050781 C 44.589844 46.558594 45.800781 45.359375 47.28125 45.359375 L 47.28125 45.941406 L 47.28125 45.359375 C 48.769531 45.359375 49.972656 46.570312 49.972656 48.050781 L 49.390625 48.050781 L 49.972656 48.050781 C 49.972656 49.539062 48.761719 50.75 47.28125 50.75 L 46.703125 50.492188 L 46.960938 49.589844 L 47.28125 49.589844 C 48.121094 49.589844 48.8125 48.910156 48.8125 48.058594 C 48.8125 47.210938 48.132812 46.53125 47.28125 46.53125 C 46.429688 46.53125 45.75 47.210938 45.75 48.058594 L 44.589844 48.058594 L 44.589844 28.46875 C 44.589844 26.980469 45.800781 25.78125 47.28125 25.78125 C 48.761719 25.78125 49.972656 26.992188 49.972656 28.46875 L 49.972656 47.859375 C 49.972656 48.179688 49.710938 48.441406 49.390625 48.441406 L 48.8125 48.179688 Z M 48.820312 47.859375 " clip-rule="nonzero"/></clipPath><clipPath id="6696c062b0"><path d="M 27.5625 30.953125 L 43 30.953125 L 43 48.164062 L 27.5625 48.164062 Z M 27.5625 30.953125 " clip-rule="nonzero"/></clipPath><clipPath id="3ace7eb4e9"><path d="M 30.972656 38.082031 L 28.28125 38.082031 L 28.28125 37.5 L 28.859375 37.5 L 28.859375 47.480469 L 28.28125 47.480469 L 28.28125 46.902344 L 35.960938 46.902344 L 35.960938 47.480469 L 35.382812 47.480469 L 35.382812 44.589844 L 38.652344 44.589844 L 38.652344 45.761719 L 35.960938 45.761719 L 35.960938 45.179688 L 36.542969 45.179688 L 36.542969 48.070312 L 27.703125 48.070312 L 27.703125 36.910156 L 30.972656 36.910156 Z M 42.871094 35.390625 L 35.960938 35.390625 L 35.960938 34.808594 L 36.542969 34.808594 L 36.542969 38.082031 L 32.890625 38.082031 L 32.890625 36.910156 L 35.960938 36.910156 L 35.960938 37.492188 L 35.382812 37.492188 L 35.382812 34.230469 L 42.871094 34.230469 Z M 40.570312 44.589844 L 42.871094 44.589844 L 42.871094 45.761719 L 40.570312 45.761719 Z M 36.550781 42.101562 L 36.550781 45.171875 L 35.382812 45.171875 L 35.382812 42.101562 Z M 38.269531 39.210938 L 42.871094 39.210938 L 42.871094 40.378906 L 38.269531 40.378906 Z M 28.292969 41.902344 L 33.671875 41.902344 L 33.671875 43.070312 L 28.28125 43.070312 Z M 36.550781 37.492188 L 36.550781 40.179688 L 35.382812 40.179688 L 35.382812 37.5 Z M 31.941406 31.351562 L 31.941406 32.121094 L 30.769531 32.121094 L 30.769531 31.351562 Z M 35.011719 30.96875 L 35.011719 32.121094 L 33.839844 32.121094 L 33.839844 30.96875 Z M 38.082031 31.351562 L 38.082031 32.121094 L 36.910156 32.121094 L 36.910156 31.351562 Z M 41.152344 30.96875 L 41.152344 32.121094 L 39.992188 32.121094 L 39.992188 30.96875 Z M 42.871094 32.699219 L 27.703125 32.699219 L 27.703125 30.96875 L 28.871094 30.96875 L 28.871094 32.121094 L 28.292969 32.121094 L 28.292969 31.539062 L 42.871094 31.539062 Z M 42.871094 32.699219 " clip-rule="nonzero"/></clipPath></defs><g clip-path="url(#4b45485ada)"><g clip-path="url(#77c4009a40)"><path fill="#1f1b44" d="M 6.472656 6.46875 L 68.527344 6.46875 L 68.527344 68.527344 L 6.472656 68.527344 Z M 6.472656 6.46875 " fill-opacity="1" fill-rule="nonzero"/></g></g><g clip-path="url(#270699db09)"><g clip-path="url(#49e45f1d98)"><path fill="#1f1b44" d="M 6.472656 6.46875 L 68.527344 6.46875 L 68.527344 68.527344 L 6.472656 68.527344 Z M 6.472656 6.46875 " fill-opacity="1" fill-rule="nonzero"/></g></g><g clip-path="url(#310ec2031b)"><g clip-path="url(#e7d6f64cc8)"><path fill="#1f1b44" d="M 6.472656 6.46875 L 68.527344 6.46875 L 68.527344 68.527344 L 6.472656 68.527344 Z M 6.472656 6.46875 " fill-opacity="1" fill-rule="nonzero"/></g></g><g clip-path="url(#6696c062b0)"><g clip-path="url(#3ace7eb4e9)"><path fill="#e66225" d="M 6.472656 6.46875 L 68.527344 6.46875 L 68.527344 68.527344 L 6.472656 68.527344 Z M 6.472656 6.46875 " fill-opacity="1" fill-rule="nonzero"/></g></g></svg>