<svg xmlns="http://www.w3.org/2000/svg" xmlns:xlink="http://www.w3.org/1999/xlink" width="100" zoomAndPan="magnify" viewBox="0 0 75 74.999997" height="100" preserveAspectRatio="xMidYMid meet" version="1.0"><defs><clipPath id="55cd79d335"><path d="M 11.320312 11.320312 L 63.679688 11.320312 L 63.679688 63.679688 L 11.320312 63.679688 Z M 11.320312 11.320312 " clip-rule="nonzero"/></clipPath><clipPath id="c92795d5bc"><path d="M 37.5 61.53125 C 50.769531 61.53125 61.53125 50.769531 61.53125 37.5 L 62.53125 37.5 L 61.53125 37.5 C 61.53125 24.230469 50.769531 13.46875 37.5 13.46875 C 24.230469 13.46875 13.472656 24.230469 13.472656 37.5 L 12.472656 37.5 L 13.472656 37.5 C 13.472656 50.769531 24.230469 61.53125 37.5 61.53125 L 37.5 62.53125 L 37.5 61.53125 M 37.5 63.53125 C 23.121094 63.53125 11.472656 51.878906 11.472656 37.5 C 11.472656 23.121094 23.121094 11.46875 37.5 11.46875 C 51.878906 11.46875 63.53125 23.121094 63.53125 37.5 C 63.53125 51.878906 51.871094 63.53125 37.5 63.53125 Z M 37.5 63.53125 " clip-rule="nonzero"/></clipPath><clipPath id="d74cf741a6"><path d="M 24.167969 39.679688 L 50.832031 39.679688 L 50.832031 51.316406 L 24.167969 51.316406 Z M 24.167969 39.679688 " clip-rule="nonzero"/></clipPath><clipPath id="eac40b37dd"><path d="M 50.671875 51.28125 L 24.222656 51.28125 L 24.222656 40.210938 C 24.222656 40.03125 24.359375 39.890625 24.539062 39.890625 L 24.859375 40.03125 L 24.859375 50.652344 L 50.039062 50.652344 L 50.039062 40.210938 C 50.039062 40.03125 50.179688 39.890625 50.359375 39.890625 L 50.679688 40.03125 Z M 50.671875 51.28125 " clip-rule="nonzero"/></clipPath><clipPath id="bce13ac52e"><path d="M 50 27.5625 L 50.832031 27.5625 L 50.832031 37.984375 L 50 37.984375 Z M 50 27.5625 " clip-rule="nonzero"/></clipPath><clipPath id="25ad11ef06"><path d="M 50.351562 37.96875 L 50.03125 37.832031 L 50.03125 27.929688 C 50.03125 27.75 50.171875 27.609375 50.351562 27.609375 L 50.671875 27.75 L 50.671875 37.660156 C 50.671875 37.839844 50.53125 37.980469 50.351562 37.980469 " clip-rule="nonzero"/></clipPath><clipPath id="ea86a97a16"><path d="M 24.167969 27.5625 L 24.894531 27.5625 L 24.894531 37.984375 L 24.167969 37.984375 Z M 24.167969 27.5625 " clip-rule="nonzero"/></clipPath><clipPath id="e3d762bfa1"><path d="M 24.539062 37.96875 L 24.222656 37.832031 L 24.222656 27.929688 C 24.222656 27.75 24.359375 27.609375 24.539062 27.609375 L 24.859375 27.75 L 24.859375 37.660156 C 24.859375 37.839844 24.722656 37.980469 24.539062 37.980469 " clip-rule="nonzero"/></clipPath><clipPath id="5c28487b37"><path d="M 27 42.105469 L 32.410156 42.105469 L 32.410156 45.742188 L 27 45.742188 Z M 27 42.105469 " clip-rule="nonzero"/></clipPath><clipPath id="63b51632e3"><path d="M 31.519531 45.519531 L 27.789062 45.519531 L 27.691406 45.390625 C 27.671875 45.359375 27.199219 44.710938 27.011719 43.378906 L 27.050781 42.832031 L 27.679688 42.289062 L 31.359375 42.289062 C 31.640625 42.289062 31.902344 42.410156 32.082031 42.621094 L 32.339844 43.109375 C 32.101562 44.71875 31.640625 45.371094 31.621094 45.402344 Z M 28.132812 44.878906 L 31.179688 44.878906 C 31.300781 44.652344 31.539062 44.121094 31.671875 43.28125 L 31.660156 43.101562 L 31.449219 42.921875 L 27.949219 42.921875 C 27.859375 42.921875 27.769531 42.960938 27.710938 43.03125 L 27.621094 43.191406 L 28 44.652344 " clip-rule="nonzero"/></clipPath><clipPath id="f21fad93df"><path d="M 29.257812 44.773438 L 31.683594 44.773438 L 31.683594 51.316406 L 29.257812 51.316406 Z M 29.257812 44.773438 " clip-rule="nonzero"/></clipPath><clipPath id="b25ab8c413"><path d="M 31.199219 51.210938 L 30.882812 51.070312 C 30.882812 49.710938 29.601562 49.242188 29.550781 49.21875 L 29.339844 49.140625 L 29.339844 45.199219 C 29.339844 45.019531 29.480469 44.878906 29.660156 44.878906 L 29.980469 45.019531 L 29.980469 48.710938 C 30.449219 48.929688 31.519531 49.582031 31.519531 50.890625 L 31.382812 51.210938 " clip-rule="nonzero"/></clipPath><clipPath id="072c9e0177"><path d="M 27.804688 48.40625 L 29.984375 48.40625 L 29.984375 51.316406 L 27.804688 51.316406 Z M 27.804688 48.40625 " clip-rule="nonzero"/></clipPath><clipPath id="e07d4f1143"><path d="M 28.132812 51.210938 L 27.8125 51.070312 C 27.8125 49.25 29.492188 48.652344 29.570312 48.621094 L 29.921875 48.652344 L 29.949219 49.160156 C 29.730469 49.242188 28.449219 49.699219 28.449219 50.890625 L 28.3125 51.210938 " clip-rule="nonzero"/></clipPath><clipPath id="2d1b54345a"><path d="M 34.589844 42.105469 L 40.167969 42.105469 L 40.167969 45.742188 L 34.589844 45.742188 Z M 34.589844 42.105469 " clip-rule="nonzero"/></clipPath><clipPath id="10fcfb0611"><path d="M 39.3125 45.519531 L 35.582031 45.519531 L 35.480469 45.390625 C 35.460938 45.359375 34.992188 44.710938 34.800781 43.378906 L 34.839844 42.832031 L 35.472656 42.289062 L 39.152344 42.289062 C 39.429688 42.289062 39.691406 42.410156 39.871094 42.621094 L 40.132812 43.109375 C 39.890625 44.71875 39.429688 45.371094 39.410156 45.402344 Z M 35.921875 44.878906 L 38.972656 44.878906 C 39.089844 44.652344 39.339844 44.121094 39.460938 43.28125 L 39.449219 43.101562 L 39.242188 42.921875 L 35.742188 42.921875 C 35.652344 42.921875 35.5625 42.960938 35.5 43.03125 L 35.410156 43.191406 L 35.789062 44.652344 " clip-rule="nonzero"/></clipPath><clipPath id="3c1ade7ca8"><path d="M 37.015625 44.773438 L 39.4375 44.773438 L 39.4375 51.316406 L 37.015625 51.316406 Z M 37.015625 44.773438 " clip-rule="nonzero"/></clipPath><clipPath id="63538e2e5a"><path d="M 38.992188 51.210938 L 38.671875 51.070312 C 38.671875 49.710938 37.390625 49.242188 37.339844 49.21875 L 37.132812 49.140625 L 37.132812 45.199219 C 37.132812 45.019531 37.269531 44.878906 37.449219 44.878906 L 37.769531 45.019531 L 37.769531 48.710938 C 38.242188 48.929688 39.3125 49.582031 39.3125 50.890625 L 39.171875 51.210938 " clip-rule="nonzero"/></clipPath><clipPath id="e871d1d847"><path d="M 35.5625 48.40625 L 37.742188 48.40625 L 37.742188 51.316406 L 35.5625 51.316406 Z M 35.5625 48.40625 " clip-rule="nonzero"/></clipPath><clipPath id="8e24afea9f"><path d="M 35.921875 51.210938 L 35.601562 51.070312 C 35.601562 49.25 37.28125 48.652344 37.359375 48.621094 L 37.710938 48.652344 L 37.742188 49.160156 C 37.519531 49.242188 36.242188 49.699219 36.242188 50.890625 L 36.101562 51.210938 " clip-rule="nonzero"/></clipPath><clipPath id="5ac7c2a764"><path d="M 42.589844 42.105469 L 48 42.105469 L 48 45.742188 L 42.589844 45.742188 Z M 42.589844 42.105469 " clip-rule="nonzero"/></clipPath><clipPath id="a16efb8b86"><path d="M 47.101562 45.519531 L 43.371094 45.519531 L 43.28125 45.390625 C 43.261719 45.359375 42.789062 44.710938 42.601562 43.378906 L 42.640625 42.832031 L 43.269531 42.289062 L 46.949219 42.289062 C 47.230469 42.289062 47.492188 42.410156 47.671875 42.621094 L 47.929688 43.109375 C 47.691406 44.71875 47.230469 45.371094 47.210938 45.402344 Z M 43.710938 44.878906 L 46.761719 44.878906 C 46.878906 44.652344 47.121094 44.121094 47.25 43.28125 L 47.242188 43.101562 L 47.03125 42.921875 L 43.539062 42.921875 C 43.441406 42.921875 43.359375 42.960938 43.300781 43.03125 L 43.210938 43.191406 L 43.589844 44.652344 " clip-rule="nonzero"/></clipPath><clipPath id="5956d9b6c4"><path d="M 44.773438 44.773438 L 47.195312 44.773438 L 47.195312 51.316406 L 44.773438 51.316406 Z M 44.773438 44.773438 " clip-rule="nonzero"/></clipPath><clipPath id="f9d3b121b9"><path d="M 46.78125 51.210938 L 46.460938 51.070312 C 46.460938 49.710938 45.179688 49.242188 45.128906 49.21875 L 44.921875 49.140625 L 44.921875 45.199219 C 44.921875 45.019531 45.0625 44.878906 45.242188 44.878906 L 45.5625 45.019531 L 45.5625 48.710938 C 46.03125 48.929688 47.101562 49.582031 47.101562 50.890625 L 46.960938 51.210938 " clip-rule="nonzero"/></clipPath><clipPath id="26a37eb2db"><path d="M 43.316406 48.40625 L 45.742188 48.40625 L 45.742188 51.316406 L 43.316406 51.316406 Z M 43.316406 48.40625 " clip-rule="nonzero"/></clipPath><clipPath id="79e24325f3"><path d="M 43.710938 51.210938 L 43.390625 51.070312 C 43.390625 49.25 45.070312 48.652344 45.152344 48.621094 L 45.5 48.652344 L 45.53125 49.160156 C 45.3125 49.242188 44.039062 49.699219 44.039062 50.890625 L 43.902344 51.210938 " clip-rule="nonzero"/></clipPath><clipPath id="d95f9e424a"><path d="M 22.710938 37.257812 L 52.285156 37.257812 L 52.285156 40.652344 L 22.710938 40.652344 Z M 22.710938 37.257812 " clip-rule="nonzero"/></clipPath><clipPath id="2405db3749"><path d="M 52.171875 40.53125 L 22.832031 40.53125 L 24.332031 37.339844 L 27.070312 37.339844 C 27.25 37.339844 27.390625 37.480469 27.390625 37.660156 L 27.25 37.980469 L 24.742188 37.980469 L 23.839844 39.902344 L 51.140625 39.902344 L 50.171875 37.980469 L 47.921875 37.980469 C 47.742188 37.980469 47.601562 37.839844 47.601562 37.660156 L 47.742188 37.339844 L 50.550781 37.339844 Z M 52.171875 40.53125 " clip-rule="nonzero"/></clipPath><clipPath id="56a5cd587a"><path d="M 22.710938 23.683594 L 52.285156 23.683594 L 52.285156 28.289062 L 22.710938 28.289062 Z M 22.710938 23.683594 " clip-rule="nonzero"/></clipPath><clipPath id="bec546ec26"><path d="M 52.089844 28.242188 L 22.902344 28.242188 L 24.300781 23.710938 L 50.582031 23.710938 Z M 37.519531 27.601562 L 51.210938 27.601562 L 50.128906 24.339844 L 24.769531 24.339844 L 23.761719 27.601562 Z M 37.519531 27.601562 " clip-rule="nonzero"/></clipPath><clipPath id="8631791fa1"><path d="M 24.894531 25.136719 L 50.105469 25.136719 L 50.105469 26.832031 L 24.894531 26.832031 Z M 24.894531 25.136719 " clip-rule="nonzero"/></clipPath><clipPath id="ced287c2ed"><path d="M 24.929688 26.75 L 25.410156 25.21875 L 49.511719 25.21875 L 50.019531 26.75 Z M 24.929688 26.75 " clip-rule="nonzero"/></clipPath><clipPath id="2090beb369"><path d="M 29.257812 27.804688 L 29.984375 27.804688 L 29.984375 31.679688 L 29.257812 31.679688 Z M 29.257812 27.804688 " clip-rule="nonzero"/></clipPath><clipPath id="97d5cce00e"><path d="M 29.652344 31.640625 L 29.332031 31.5 L 29.332031 28.21875 C 29.332031 28.039062 29.472656 27.902344 29.652344 27.902344 L 29.972656 28.039062 L 29.972656 31.308594 C 29.972656 31.492188 29.832031 31.628906 29.652344 31.628906 " clip-rule="nonzero"/></clipPath><clipPath id="d62b56ad51"><path d="M 27.320312 31 L 32 31 L 32 34.589844 L 27.320312 34.589844 Z M 27.320312 31 " clip-rule="nonzero"/></clipPath><clipPath id="c76549dc92"><path d="M 31.992188 34.558594 L 27.320312 34.558594 L 28.3125 32.660156 C 28.289062 32.558594 28.28125 32.46875 28.28125 32.371094 L 28.890625 31 C 30.402344 31 31.019531 31.621094 31.019531 32.371094 L 31.011719 32.570312 Z M 28.382812 33.921875 L 30.941406 33.921875 L 30.3125 32.730469 L 30.351562 32.601562 L 30.390625 32.449219 L 30.0625 31.640625 L 28.921875 31.96875 L 28.929688 32.53125 L 29 32.730469 Z M 28.382812 33.921875 " clip-rule="nonzero"/></clipPath><clipPath id="d88938a53c"><path d="M 37.015625 27.804688 L 37.984375 27.804688 L 37.984375 31.679688 L 37.015625 31.679688 Z M 37.015625 27.804688 " clip-rule="nonzero"/></clipPath><clipPath id="364e5ebcd5"><path d="M 37.492188 31.640625 L 37.171875 31.5 L 37.171875 28.21875 C 37.171875 28.039062 37.3125 27.902344 37.492188 27.902344 L 37.8125 28.039062 L 37.8125 31.308594 C 37.8125 31.492188 37.671875 31.628906 37.492188 31.628906 " clip-rule="nonzero"/></clipPath><clipPath id="1fa210da97"><path d="M 35.074219 31 L 39.925781 31 L 39.925781 34.589844 L 35.074219 34.589844 Z M 35.074219 31 " clip-rule="nonzero"/></clipPath><clipPath id="07fa5dc21d"><path d="M 39.820312 34.558594 L 35.160156 34.558594 L 36.152344 32.660156 C 36.132812 32.558594 36.121094 32.46875 36.121094 32.371094 L 36.730469 31 C 38.242188 31 38.859375 31.621094 38.859375 32.371094 L 38.851562 32.570312 Z M 36.210938 33.921875 L 38.769531 33.921875 L 38.140625 32.730469 L 38.179688 32.601562 L 38.222656 32.449219 L 37.890625 31.640625 L 36.75 31.96875 L 36.761719 32.53125 L 36.832031 32.730469 Z M 36.210938 33.921875 " clip-rule="nonzero"/></clipPath><clipPath id="be12328c74"><path d="M 45 27.804688 L 45.742188 27.804688 L 45.742188 31.679688 L 45 31.679688 Z M 45 27.804688 " clip-rule="nonzero"/></clipPath><clipPath id="e05b9981a8"><path d="M 45.332031 31.640625 L 45.011719 31.5 L 45.011719 28.21875 C 45.011719 28.039062 45.152344 27.902344 45.332031 27.902344 L 45.652344 28.039062 L 45.652344 31.308594 C 45.652344 31.492188 45.511719 31.628906 45.332031 31.628906 " clip-rule="nonzero"/></clipPath><clipPath id="4ca59744a6"><path d="M 43 31 L 47.679688 31 L 47.679688 34.589844 L 43 34.589844 Z M 43 31 " clip-rule="nonzero"/></clipPath><clipPath id="e97f0ea74c"><path d="M 47.660156 34.558594 L 43 34.558594 L 43.992188 32.660156 C 43.972656 32.558594 43.960938 32.46875 43.960938 32.371094 L 44.570312 31 C 46.082031 31 46.699219 31.621094 46.699219 32.371094 L 46.691406 32.570312 Z M 44.050781 33.921875 L 46.609375 33.921875 L 45.980469 32.730469 L 46.019531 32.601562 L 46.0625 32.449219 L 45.730469 31.640625 L 44.589844 31.96875 L 44.601562 32.53125 L 44.671875 32.730469 Z M 44.050781 33.921875 " clip-rule="nonzero"/></clipPath></defs><g clip-path="url(#55cd79d335)"><g clip-path="url(#c92795d5bc)"><path fill="#1f1b44" d="M 6.472656 6.46875 L 68.527344 6.46875 L 68.527344 68.527344 L 6.472656 68.527344 Z M 6.472656 6.46875 " fill-opacity="1" fill-rule="nonzero"/></g></g><g clip-path="url(#d74cf741a6)"><g clip-path="url(#eac40b37dd)"><path fill="#1f1b44" d="M 6.472656 6.46875 L 68.527344 6.46875 L 68.527344 68.527344 L 6.472656 68.527344 Z M 6.472656 6.46875 " fill-opacity="1" fill-rule="nonzero"/></g></g><g clip-path="url(#bce13ac52e)"><g clip-path="url(#25ad11ef06)"><path fill="#1f1b44" d="M 6.472656 6.46875 L 68.527344 6.46875 L 68.527344 68.527344 L 6.472656 68.527344 Z M 6.472656 6.46875 " fill-opacity="1" fill-rule="nonzero"/></g></g><g clip-path="url(#ea86a97a16)"><g clip-path="url(#e3d762bfa1)"><path fill="#1f1b44" d="M 6.472656 6.46875 L 68.527344 6.46875 L 68.527344 68.527344 L 6.472656 68.527344 Z M 6.472656 6.46875 " fill-opacity="1" fill-rule="nonzero"/></g></g><g clip-path="url(#5c28487b37)"><g clip-path="url(#63b51632e3)"><path fill="#1f1b44" d="M 6.472656 6.46875 L 68.527344 6.46875 L 68.527344 68.527344 L 6.472656 68.527344 Z M 6.472656 6.46875 " fill-opacity="1" fill-rule="nonzero"/></g></g><g clip-path="url(#f21fad93df)"><g clip-path="url(#b25ab8c413)"><path fill="#1f1b44" d="M 6.472656 6.46875 L 68.527344 6.46875 L 68.527344 68.527344 L 6.472656 68.527344 Z M 6.472656 6.46875 " fill-opacity="1" fill-rule="nonzero"/></g></g><g clip-path="url(#072c9e0177)"><g clip-path="url(#e07d4f1143)"><path fill="#1f1b44" d="M 6.472656 6.46875 L 68.527344 6.46875 L 68.527344 68.527344 L 6.472656 68.527344 Z M 6.472656 6.46875 " fill-opacity="1" fill-rule="nonzero"/></g></g><g clip-path="url(#2d1b54345a)"><g clip-path="url(#10fcfb0611)"><path fill="#1f1b44" d="M 6.472656 6.46875 L 68.527344 6.46875 L 68.527344 68.527344 L 6.472656 68.527344 Z M 6.472656 6.46875 " fill-opacity="1" fill-rule="nonzero"/></g></g><g clip-path="url(#3c1ade7ca8)"><g clip-path="url(#63538e2e5a)"><path fill="#1f1b44" d="M 6.472656 6.46875 L 68.527344 6.46875 L 68.527344 68.527344 L 6.472656 68.527344 Z M 6.472656 6.46875 " fill-opacity="1" fill-rule="nonzero"/></g></g><g clip-path="url(#e871d1d847)"><g clip-path="url(#8e24afea9f)"><path fill="#1f1b44" d="M 6.472656 6.46875 L 68.527344 6.46875 L 68.527344 68.527344 L 6.472656 68.527344 Z M 6.472656 6.46875 " fill-opacity="1" fill-rule="nonzero"/></g></g><g clip-path="url(#5ac7c2a764)"><g clip-path="url(#a16efb8b86)"><path fill="#1f1b44" d="M 6.472656 6.46875 L 68.527344 6.46875 L 68.527344 68.527344 L 6.472656 68.527344 Z M 6.472656 6.46875 " fill-opacity="1" fill-rule="nonzero"/></g></g><g clip-path="url(#5956d9b6c4)"><g clip-path="url(#f9d3b121b9)"><path fill="#1f1b44" d="M 6.472656 6.46875 L 68.527344 6.46875 L 68.527344 68.527344 L 6.472656 68.527344 Z M 6.472656 6.46875 " fill-opacity="1" fill-rule="nonzero"/></g></g><g clip-path="url(#26a37eb2db)"><g clip-path="url(#79e24325f3)"><path fill="#1f1b44" d="M 6.472656 6.46875 L 68.527344 6.46875 L 68.527344 68.527344 L 6.472656 68.527344 Z M 6.472656 6.46875 " fill-opacity="1" fill-rule="nonzero"/></g></g><g clip-path="url(#d95f9e424a)"><g clip-path="url(#2405db3749)"><path fill="#1f1b44" d="M 6.472656 6.46875 L 68.527344 6.46875 L 68.527344 68.527344 L 6.472656 68.527344 Z M 6.472656 6.46875 " fill-opacity="1" fill-rule="nonzero"/></g></g><g clip-path="url(#56a5cd587a)"><g clip-path="url(#bec546ec26)"><path fill="#1f1b44" d="M 6.472656 6.46875 L 68.527344 6.46875 L 68.527344 68.527344 L 6.472656 68.527344 Z M 6.472656 6.46875 " fill-opacity="1" fill-rule="nonzero"/></g></g><g clip-path="url(#8631791fa1)"><g clip-path="url(#ced287c2ed)"><path fill="#e66225" d="M 6.472656 6.46875 L 68.527344 6.46875 L 68.527344 68.527344 L 6.472656 68.527344 Z M 6.472656 6.46875 " fill-opacity="1" fill-rule="nonzero"/></g></g><g clip-path="url(#2090beb369)"><g clip-path="url(#97d5cce00e)"><path fill="#1f1b44" d="M 6.472656 6.46875 L 68.527344 6.46875 L 68.527344 68.527344 L 6.472656 68.527344 Z M 6.472656 6.46875 " fill-opacity="1" fill-rule="nonzero"/></g></g><g clip-path="url(#d62b56ad51)"><g clip-path="url(#c76549dc92)"><path fill="#1f1b44" d="M 6.472656 6.46875 L 68.527344 6.46875 L 68.527344 68.527344 L 6.472656 68.527344 Z M 6.472656 6.46875 " fill-opacity="1" fill-rule="nonzero"/></g></g><g clip-path="url(#d88938a53c)"><g clip-path="url(#364e5ebcd5)"><path fill="#1f1b44" d="M 6.472656 6.46875 L 68.527344 6.46875 L 68.527344 68.527344 L 6.472656 68.527344 Z M 6.472656 6.46875 " fill-opacity="1" fill-rule="nonzero"/></g></g><g clip-path="url(#1fa210da97)"><g clip-path="url(#07fa5dc21d)"><path fill="#1f1b44" d="M 6.472656 6.46875 L 68.527344 6.46875 L 68.527344 68.527344 L 6.472656 68.527344 Z M 6.472656 6.46875 " fill-opacity="1" fill-rule="nonzero"/></g></g><g clip-path="url(#be12328c74)"><g clip-path="url(#e05b9981a8)"><path fill="#1f1b44" d="M 6.472656 6.46875 L 68.527344 6.46875 L 68.527344 68.527344 L 6.472656 68.527344 Z M 6.472656 6.46875 " fill-opacity="1" fill-rule="nonzero"/></g></g><g clip-path="url(#4ca59744a6)"><g clip-path="url(#e97f0ea74c)"><path fill="#1f1b44" d="M 6.472656 6.46875 L 68.527344 6.46875 L 68.527344 68.527344 L 6.472656 68.527344 Z M 6.472656 6.46875 " fill-opacity="1" fill-rule="nonzero"/></g></g></svg>