<svg xmlns="http://www.w3.org/2000/svg" xmlns:xlink="http://www.w3.org/1999/xlink" width="100" zoomAndPan="magnify" viewBox="0 0 75 74.999997" height="100" preserveAspectRatio="xMidYMid meet" version="1.0"><defs><clipPath id="d6405d2d36"><path d="M 11.300781 11.417969 L 63.707031 11.417969 L 63.707031 63.582031 L 11.300781 63.582031 Z M 11.300781 11.417969 " clip-rule="nonzero"/></clipPath><clipPath id="e424835e72"><path d="M 37.5 13.355469 C 50.773438 13.355469 61.53125 24.117188 61.53125 37.386719 C 61.53125 50.65625 50.773438 61.417969 37.5 61.417969 C 24.230469 61.417969 13.472656 50.65625 13.472656 37.386719 C 13.472656 24.117188 24.230469 13.355469 37.5 13.355469 Z M 34 11.585938 C 21.28125 13.296875 11.472656 24.195312 11.472656 37.386719 C 11.472656 51.757812 23.121094 63.417969 37.5 63.417969 C 51.882812 63.417969 63.53125 51.757812 63.53125 37.386719 C 63.53125 24.195312 53.722656 13.296875 41 11.585938 Z M 34 11.585938 " clip-rule="nonzero"/></clipPath><clipPath id="06ef7107b8"><path d="M 24.101562 22.042969 L 36.175781 22.042969 L 36.175781 51.265625 L 24.101562 51.265625 Z M 24.101562 22.042969 " clip-rule="nonzero"/></clipPath><clipPath id="9fcbe09ee1"><path d="M 34.941406 36.925781 L 34.941406 23.875 L 35.523438 23.875 L 34.941406 23.875 L 34.710938 23.367188 L 34.429688 22.785156 L 34.429688 23.367188 L 26 23.367188 L 25.492188 23.597656 L 24.910156 23.875 L 25.492188 23.875 L 25.492188 50.636719 C 25.492188 50.957031 25.230469 51.21875 24.910156 51.21875 L 24.332031 50.957031 L 24.332031 23.875 C 24.332031 22.957031 25.082031 22.207031 26 22.207031 L 34.441406 22.207031 C 35.363281 22.207031 36.113281 22.957031 36.113281 23.875 L 36.113281 36.9375 C 36.113281 37.257812 35.851562 37.515625 35.53125 37.515625 L 34.953125 37.257812 Z M 34.941406 36.925781 " clip-rule="nonzero"/></clipPath><clipPath id="55eb077b1e"><path d="M 26.035156 24 L 35.933594 24 L 35.933594 36 L 26.035156 36 Z M 26.035156 24 " clip-rule="nonzero"/></clipPath><clipPath id="17d9a51347"><path d="M 35.242188 25.296875 L 27.792969 25.296875 L 27.28125 25.527344 L 26.703125 25.808594 L 27.28125 25.808594 L 27.28125 34.308594 L 26.703125 34.308594 L 27.28125 34.308594 L 27.511719 34.816406 L 27.792969 35.398438 L 27.792969 34.816406 L 35.242188 34.816406 C 35.5625 34.816406 35.820312 35.078125 35.820312 35.398438 L 35.5625 35.976562 L 27.792969 35.976562 C 26.871094 35.976562 26.121094 35.226562 26.121094 34.308594 L 26.121094 25.808594 C 26.121094 24.886719 26.871094 24.136719 27.792969 24.136719 L 35.242188 24.136719 C 35.5625 24.136719 35.820312 24.398438 35.820312 24.71875 L 35.5625 25.296875 Z M 35.242188 25.296875 " clip-rule="nonzero"/></clipPath><clipPath id="a689a94117"><path d="M 27.722656 25.667969 L 34.488281 25.667969 L 34.488281 34.359375 L 27.722656 34.359375 Z M 27.722656 25.667969 " clip-rule="nonzero"/></clipPath><clipPath id="d32303ed2a"><path d="M 27.871094 25.90625 L 27.871094 34.207031 L 34.441406 34.207031 C 28.792969 33.605469 27.871094 25.90625 27.871094 25.90625 " clip-rule="nonzero"/></clipPath><clipPath id="886110621f"><path d="M 33.039062 38.464844 L 37.867188 38.464844 L 37.867188 51.265625 L 33.039062 51.265625 Z M 33.039062 38.464844 " clip-rule="nonzero"/></clipPath><clipPath id="ab1757712a"><path d="M 34.890625 39.828125 L 34.382812 40.058594 L 33.800781 40.335938 L 34.382812 40.335938 L 34.382812 49.546875 L 33.800781 49.546875 L 34.382812 49.546875 L 34.613281 50.058594 L 34.890625 50.636719 L 34.890625 50.058594 L 36.03125 50.058594 L 36.03125 50.636719 L 36.03125 50.058594 L 36.542969 49.828125 L 37.121094 49.546875 L 36.542969 49.546875 L 36.542969 40.335938 L 37.121094 40.335938 L 36.542969 40.335938 L 36.3125 39.828125 L 36.03125 39.246094 L 36.03125 39.828125 L 34.890625 39.828125 M 34.890625 38.667969 L 36.03125 38.667969 C 36.953125 38.667969 37.703125 39.417969 37.703125 40.335938 L 37.703125 49.546875 C 37.703125 50.46875 36.953125 51.21875 36.03125 51.21875 L 34.890625 51.21875 C 33.972656 51.21875 33.222656 50.46875 33.222656 49.546875 L 33.222656 40.335938 C 33.222656 39.417969 33.972656 38.667969 34.890625 38.667969 Z M 34.890625 38.667969 " clip-rule="nonzero"/></clipPath><clipPath id="b99adadd4c"><path d="M 36.417969 39.671875 L 51.875 39.671875 L 51.875 43.054688 L 36.417969 43.054688 Z M 36.417969 39.671875 " clip-rule="nonzero"/></clipPath><clipPath id="be73aa732b"><path d="M 50.511719 41.425781 L 50.320312 40.996094 L 50.082031 40.417969 L 50.082031 40.996094 L 38.160156 40.996094 L 37.730469 41.1875 L 37.152344 41.425781 L 37.730469 41.425781 L 37.921875 41.855469 L 38.160156 42.4375 L 38.160156 41.855469 L 50.082031 41.855469 L 50.082031 42.4375 L 50.082031 41.855469 L 50.511719 41.667969 L 51.089844 41.425781 L 50.511719 41.425781 M 51.671875 41.425781 C 51.671875 42.308594 50.960938 43.015625 50.082031 43.015625 L 38.160156 43.015625 C 37.28125 43.015625 36.570312 42.308594 36.570312 41.425781 C 36.570312 40.546875 37.28125 39.835938 38.160156 39.835938 L 50.082031 39.835938 C 50.960938 39.835938 51.671875 40.546875 51.671875 41.425781 Z M 51.671875 41.425781 " clip-rule="nonzero"/></clipPath><clipPath id="80cb28ec60"><path d="M 23.136719 50 L 51.875 50 L 51.875 51.265625 L 23.136719 51.265625 Z M 23.136719 50 " clip-rule="nonzero"/></clipPath><clipPath id="87044008a8"><path d="M 23.902344 50.058594 L 51.089844 50.058594 C 51.410156 50.058594 51.671875 50.316406 51.671875 50.636719 L 51.410156 51.21875 L 23.902344 51.21875 C 23.582031 51.21875 23.320312 50.957031 23.320312 50.636719 L 23.582031 50.058594 Z M 23.902344 50.058594 " clip-rule="nonzero"/></clipPath><clipPath id="5982592a05"><path d="M 37.625 39.914062 L 41 39.914062 L 41 43 L 37.625 43 Z M 37.625 39.914062 " clip-rule="nonzero"/></clipPath><clipPath id="1a34515648"><path d="M 40.632812 40.9375 L 38.773438 42.808594 C 38.542969 43.035156 38.171875 43.035156 37.953125 42.808594 L 37.722656 42.207031 L 39.8125 40.117188 C 40.042969 39.886719 40.410156 39.886719 40.632812 40.117188 L 40.863281 40.71875 Z M 40.632812 40.9375 " clip-rule="nonzero"/></clipPath><clipPath id="808705a4f5"><path d="M 40.523438 39.914062 L 43.90625 39.914062 L 43.90625 43 L 40.523438 43 Z M 40.523438 39.914062 " clip-rule="nonzero"/></clipPath><clipPath id="12110f1183"><path d="M 43.621094 40.9375 L 41.75 42.808594 C 41.523438 43.035156 41.152344 43.035156 40.929688 42.808594 L 40.703125 42.207031 L 42.792969 40.117188 C 43.023438 39.886719 43.390625 39.886719 43.613281 40.117188 L 43.839844 40.71875 Z M 43.621094 40.9375 " clip-rule="nonzero"/></clipPath><clipPath id="5913485945"><path d="M 43.664062 39.914062 L 47 39.914062 L 47 43 L 43.664062 43 Z M 43.664062 39.914062 " clip-rule="nonzero"/></clipPath><clipPath id="c3e64cc34e"><path d="M 46.613281 40.9375 L 44.742188 42.808594 C 44.511719 43.035156 44.140625 43.035156 43.921875 42.808594 L 43.691406 42.207031 L 45.78125 40.117188 C 46.011719 39.886719 46.382812 39.886719 46.601562 40.117188 L 46.832031 40.71875 Z M 46.613281 40.9375 " clip-rule="nonzero"/></clipPath><clipPath id="629f0782b9"><path d="M 46.5625 39.914062 L 49.941406 39.914062 L 49.941406 43 L 46.5625 43 Z M 46.5625 39.914062 " clip-rule="nonzero"/></clipPath><clipPath id="e99ae553fc"><path d="M 49.601562 40.9375 L 47.730469 42.808594 C 47.5 43.035156 47.132812 43.035156 46.910156 42.808594 L 46.679688 42.207031 L 48.773438 40.117188 C 49 39.886719 49.371094 39.886719 49.589844 40.117188 L 49.820312 40.71875 Z M 49.601562 40.9375 " clip-rule="nonzero"/></clipPath></defs><g clip-path="url(#d6405d2d36)"><g clip-path="url(#e424835e72)"><path fill="#1f1b44" d="M 6.472656 6.585938 L 68.539062 6.585938 L 68.539062 68.414062 L 6.472656 68.414062 Z M 6.472656 6.585938 " fill-opacity="1" fill-rule="nonzero"/></g></g><g clip-path="url(#06ef7107b8)"><g clip-path="url(#9fcbe09ee1)"><path fill="#1f1b44" d="M 6.472656 6.585938 L 68.539062 6.585938 L 68.539062 68.414062 L 6.472656 68.414062 Z M 6.472656 6.585938 " fill-opacity="1" fill-rule="nonzero"/></g></g><g clip-path="url(#55eb077b1e)"><g clip-path="url(#17d9a51347)"><path fill="#1f1b44" d="M 6.472656 6.585938 L 68.539062 6.585938 L 68.539062 68.414062 L 6.472656 68.414062 Z M 6.472656 6.585938 " fill-opacity="1" fill-rule="nonzero"/></g></g><g clip-path="url(#a689a94117)"><g clip-path="url(#d32303ed2a)"><path fill="#e66225" d="M 6.472656 6.585938 L 68.539062 6.585938 L 68.539062 68.414062 L 6.472656 68.414062 Z M 6.472656 6.585938 " fill-opacity="1" fill-rule="nonzero"/></g></g><g clip-path="url(#886110621f)"><g clip-path="url(#ab1757712a)"><path fill="#1f1b44" d="M 6.472656 6.585938 L 68.539062 6.585938 L 68.539062 68.414062 L 6.472656 68.414062 Z M 6.472656 6.585938 " fill-opacity="1" fill-rule="nonzero"/></g></g><g clip-path="url(#b99adadd4c)"><g clip-path="url(#be73aa732b)"><path fill="#1f1b44" d="M 6.472656 6.585938 L 68.539062 6.585938 L 68.539062 68.414062 L 6.472656 68.414062 Z M 6.472656 6.585938 " fill-opacity="1" fill-rule="nonzero"/></g></g><g clip-path="url(#80cb28ec60)"><g clip-path="url(#87044008a8)"><path fill="#1f1b44" d="M 6.472656 6.585938 L 68.539062 6.585938 L 68.539062 68.414062 L 6.472656 68.414062 Z M 6.472656 6.585938 " fill-opacity="1" fill-rule="nonzero"/></g></g><g clip-path="url(#5982592a05)"><g clip-path="url(#1a34515648)"><path fill="#1f1b44" d="M 6.472656 6.585938 L 68.539062 6.585938 L 68.539062 68.414062 L 6.472656 68.414062 Z M 6.472656 6.585938 " fill-opacity="1" fill-rule="nonzero"/></g></g><g clip-path="url(#808705a4f5)"><g clip-path="url(#12110f1183)"><path fill="#1f1b44" d="M 6.472656 6.585938 L 68.539062 6.585938 L 68.539062 68.414062 L 6.472656 68.414062 Z M 6.472656 6.585938 " fill-opacity="1" fill-rule="nonzero"/></g></g><g clip-path="url(#5913485945)"><g clip-path="url(#c3e64cc34e)"><path fill="#1f1b44" d="M 6.472656 6.585938 L 68.539062 6.585938 L 68.539062 68.414062 L 6.472656 68.414062 Z M 6.472656 6.585938 " fill-opacity="1" fill-rule="nonzero"/></g></g><g clip-path="url(#629f0782b9)"><g clip-path="url(#e99ae553fc)"><path fill="#1f1b44" d="M 6.472656 6.585938 L 68.539062 6.585938 L 68.539062 68.414062 L 6.472656 68.414062 Z M 6.472656 6.585938 " fill-opacity="1" fill-rule="nonzero"/></g></g></svg>