<svg xmlns="http://www.w3.org/2000/svg" xmlns:xlink="http://www.w3.org/1999/xlink" width="100" zoomAndPan="magnify" viewBox="0 0 75 74.999997" height="100" preserveAspectRatio="xMidYMid meet" version="1.0"><defs><clipPath id="aaf92b5880"><path d="M 11.320312 11.320312 L 63.679688 11.320312 L 63.679688 63.679688 L 11.320312 63.679688 Z M 11.320312 11.320312 " clip-rule="nonzero"/></clipPath><clipPath id="6351f03c61"><path d="M 37.5 61.53125 C 50.769531 61.53125 61.53125 50.769531 61.53125 37.5 L 62.53125 37.5 L 61.53125 37.5 C 61.53125 24.230469 50.769531 13.46875 37.5 13.46875 C 24.230469 13.46875 13.472656 24.230469 13.472656 37.5 L 12.472656 37.5 L 13.472656 37.5 C 13.472656 50.769531 24.230469 61.53125 37.5 61.53125 L 37.5 62.53125 L 37.5 61.53125 M 37.5 63.53125 C 23.121094 63.53125 11.472656 51.878906 11.472656 37.5 C 11.472656 23.121094 23.121094 11.46875 37.5 11.46875 C 51.878906 11.46875 63.53125 23.121094 63.53125 37.5 C 63.53125 51.878906 51.871094 63.53125 37.5 63.53125 Z M 37.5 63.53125 " clip-rule="nonzero"/></clipPath><clipPath id="d96f73f34b"><path d="M 26.832031 30.46875 L 48.167969 30.46875 L 48.167969 52.285156 L 26.832031 52.285156 Z M 26.832031 30.46875 " clip-rule="nonzero"/></clipPath><clipPath id="bc17bfe759"><path d="M 47.03125 52.230469 L 47.03125 32.378906 L 47.53125 32.378906 L 47.03125 32.378906 L 46.640625 31.511719 L 46.160156 31.011719 L 46.160156 31.511719 L 28.839844 31.511719 L 27.972656 31.902344 L 27.472656 32.378906 L 27.972656 32.378906 L 27.972656 52.230469 L 26.972656 52.230469 L 26.972656 32.378906 C 26.972656 31.351562 27.8125 30.511719 28.839844 30.511719 L 46.160156 30.511719 C 47.191406 30.511719 48.03125 31.351562 48.03125 32.378906 L 48.03125 52.230469 Z M 32.101562 52.230469 L 32.101562 48.679688 L 32.601562 48.679688 L 32.101562 48.679688 L 32.660156 47.441406 L 33.351562 47.941406 L 33.351562 47.441406 L 41.351562 47.441406 L 41.351562 47.941406 L 41.351562 47.441406 L 42.589844 48 L 42.089844 48.691406 L 42.589844 48.691406 L 42.589844 52.242188 L 41.589844 52.242188 L 41.589844 48.679688 C 41.589844 48.550781 41.480469 48.441406 41.351562 48.441406 L 33.351562 48.441406 C 33.222656 48.441406 33.109375 48.550781 33.109375 48.679688 L 33.109375 52.230469 Z M 37.839844 47.941406 L 37.839844 52.230469 L 36.839844 52.230469 L 36.839844 47.941406 Z M 37.839844 47.941406 " clip-rule="nonzero"/></clipPath><clipPath id="f96bd9b3c3"><path d="M 31 33.621094 L 33.863281 33.621094 L 33.863281 36.53125 L 31 36.53125 Z M 31 33.621094 " clip-rule="nonzero"/></clipPath><clipPath id="1b63b7c3fb"><path d="M 33.402344 36.320312 L 31.5 36.320312 C 31.300781 36.320312 31.140625 36.160156 31.140625 35.960938 L 31.140625 34.070312 C 31.140625 33.871094 31.300781 33.710938 31.5 33.710938 L 33.402344 33.710938 C 33.601562 33.710938 33.761719 33.871094 33.761719 34.070312 L 33.761719 35.96875 C 33.761719 36.171875 33.601562 36.332031 33.402344 36.332031 " clip-rule="nonzero"/></clipPath><clipPath id="325eff6172"><path d="M 36.046875 33.621094 L 38.953125 33.621094 L 38.953125 36.53125 L 36.046875 36.53125 Z M 36.046875 33.621094 " clip-rule="nonzero"/></clipPath><clipPath id="cbb4b53fd0"><path d="M 38.449219 36.320312 L 36.550781 36.320312 C 36.351562 36.320312 36.191406 36.160156 36.191406 35.960938 L 36.191406 34.070312 C 36.191406 33.871094 36.351562 33.710938 36.550781 33.710938 L 38.449219 33.710938 C 38.652344 33.710938 38.8125 33.871094 38.8125 34.070312 L 38.8125 35.96875 C 38.8125 36.171875 38.652344 36.332031 38.449219 36.332031 " clip-rule="nonzero"/></clipPath><clipPath id="b48bebd596"><path d="M 41.136719 33.621094 L 44 33.621094 L 44 36.53125 L 41.136719 36.53125 Z M 41.136719 33.621094 " clip-rule="nonzero"/></clipPath><clipPath id="eba32f1090"><path d="M 43.492188 36.320312 L 41.589844 36.320312 C 41.390625 36.320312 41.230469 36.160156 41.230469 35.960938 L 41.230469 34.070312 C 41.230469 33.871094 41.390625 33.710938 41.589844 33.710938 L 43.492188 33.710938 C 43.691406 33.710938 43.851562 33.871094 43.851562 34.070312 L 43.851562 35.96875 C 43.851562 36.171875 43.691406 36.332031 43.492188 36.332031 " clip-rule="nonzero"/></clipPath><clipPath id="29dc5568bd"><path d="M 31 38.226562 L 33.863281 38.226562 L 33.863281 41 L 31 41 Z M 31 38.226562 " clip-rule="nonzero"/></clipPath><clipPath id="cbe950ddbd"><path d="M 33.402344 40.980469 L 31.5 40.980469 C 31.300781 40.980469 31.140625 40.820312 31.140625 40.621094 L 31.140625 38.71875 C 31.140625 38.519531 31.300781 38.359375 31.5 38.359375 L 33.402344 38.359375 C 33.601562 38.359375 33.761719 38.519531 33.761719 38.71875 L 33.761719 40.621094 C 33.761719 40.820312 33.601562 40.980469 33.402344 40.980469 " clip-rule="nonzero"/></clipPath><clipPath id="afcf978bd5"><path d="M 36.046875 38.226562 L 38.953125 38.226562 L 38.953125 41 L 36.046875 41 Z M 36.046875 38.226562 " clip-rule="nonzero"/></clipPath><clipPath id="a868097ae6"><path d="M 38.449219 40.980469 L 36.550781 40.980469 C 36.351562 40.980469 36.191406 40.820312 36.191406 40.621094 L 36.191406 38.71875 C 36.191406 38.519531 36.351562 38.359375 36.550781 38.359375 L 38.449219 38.359375 C 38.652344 38.359375 38.8125 38.519531 38.8125 38.71875 L 38.8125 40.621094 C 38.8125 40.820312 38.652344 40.980469 38.449219 40.980469 " clip-rule="nonzero"/></clipPath><clipPath id="5eb1c93e80"><path d="M 41.136719 38.226562 L 44 38.226562 L 44 41 L 41.136719 41 Z M 41.136719 38.226562 " clip-rule="nonzero"/></clipPath><clipPath id="789a6f9d9e"><path d="M 43.492188 40.980469 L 41.589844 40.980469 C 41.390625 40.980469 41.230469 40.820312 41.230469 40.621094 L 41.230469 38.71875 C 41.230469 38.519531 41.390625 38.359375 41.589844 38.359375 L 43.492188 38.359375 C 43.691406 38.359375 43.851562 38.519531 43.851562 38.71875 L 43.851562 40.621094 C 43.851562 40.820312 43.691406 40.980469 43.492188 40.980469 " clip-rule="nonzero"/></clipPath><clipPath id="1b32e545f7"><path d="M 31 43 L 33.863281 43 L 33.863281 45.742188 L 31 45.742188 Z M 31 43 " clip-rule="nonzero"/></clipPath><clipPath id="74fb70ccce"><path d="M 33.402344 45.652344 L 31.5 45.652344 C 31.300781 45.652344 31.140625 45.492188 31.140625 45.289062 L 31.140625 43.390625 C 31.140625 43.191406 31.300781 43.03125 31.5 43.03125 L 33.402344 43.03125 C 33.601562 43.03125 33.761719 43.191406 33.761719 43.390625 L 33.761719 45.289062 C 33.761719 45.492188 33.601562 45.652344 33.402344 45.652344 " clip-rule="nonzero"/></clipPath><clipPath id="296c6b8199"><path d="M 36.046875 43 L 38.953125 43 L 38.953125 45.742188 L 36.046875 45.742188 Z M 36.046875 43 " clip-rule="nonzero"/></clipPath><clipPath id="4848d3c332"><path d="M 38.449219 45.652344 L 36.550781 45.652344 C 36.351562 45.652344 36.191406 45.492188 36.191406 45.289062 L 36.191406 43.390625 C 36.191406 43.191406 36.351562 43.03125 36.550781 43.03125 L 38.449219 43.03125 C 38.652344 43.03125 38.8125 43.191406 38.8125 43.390625 L 38.8125 45.289062 C 38.8125 45.492188 38.652344 45.652344 38.449219 45.652344 " clip-rule="nonzero"/></clipPath><clipPath id="f489b41c01"><path d="M 41.136719 43 L 44 43 L 44 45.742188 L 41.136719 45.742188 Z M 41.136719 43 " clip-rule="nonzero"/></clipPath><clipPath id="024a20a2b9"><path d="M 43.492188 45.652344 L 41.589844 45.652344 C 41.390625 45.652344 41.230469 45.492188 41.230469 45.289062 L 41.230469 43.390625 C 41.230469 43.191406 41.390625 43.03125 41.589844 43.03125 L 43.492188 43.03125 C 43.691406 43.03125 43.851562 43.191406 43.851562 43.390625 L 43.851562 45.289062 C 43.851562 45.492188 43.691406 45.652344 43.492188 45.652344 " clip-rule="nonzero"/></clipPath><clipPath id="0a621d2b4e"><path d="M 34.105469 22.226562 L 40.894531 22.226562 L 40.894531 28.773438 L 34.105469 28.773438 Z M 34.105469 22.226562 " clip-rule="nonzero"/></clipPath><clipPath id="8fd2e4d7f1"><path d="M 37.5 22.429688 L 38.140625 23.742188 C 38.382812 24.21875 38.839844 24.5625 39.371094 24.640625 L 40.8125 24.851562 L 39.769531 25.871094 C 39.382812 26.25 39.210938 26.789062 39.300781 27.320312 L 39.550781 28.761719 L 38.261719 28.082031 C 37.78125 27.832031 37.210938 27.832031 36.730469 28.082031 L 35.441406 28.761719 L 35.691406 27.320312 C 35.78125 26.789062 35.601562 26.25 35.222656 25.871094 L 34.179688 24.851562 L 35.621094 24.640625 C 36.152344 24.5625 36.621094 24.230469 36.851562 23.742188 Z M 37.5 22.429688 " clip-rule="nonzero"/></clipPath><clipPath id="35e3b9194b"><path d="M 43.074219 24.167969 L 47.921875 24.167969 L 47.921875 28.773438 L 43.074219 28.773438 Z M 43.074219 24.167969 " clip-rule="nonzero"/></clipPath><clipPath id="3f220163e4"><path d="M 45.53125 24.3125 L 45.980469 25.230469 C 46.152344 25.570312 46.472656 25.800781 46.851562 25.859375 L 47.859375 26.011719 L 47.128906 26.71875 C 46.859375 26.980469 46.742188 27.371094 46.800781 27.742188 L 46.972656 28.75 L 46.070312 28.269531 C 45.742188 28.089844 45.332031 28.089844 45 28.269531 L 44.101562 28.75 L 44.269531 27.742188 C 44.332031 27.371094 44.210938 26.992188 43.941406 26.71875 L 43.210938 26.011719 L 44.222656 25.859375 C 44.601562 25.800781 44.921875 25.570312 45.089844 25.230469 Z M 45.53125 24.3125 " clip-rule="nonzero"/></clipPath><clipPath id="9094ec87d7"><path d="M 27.074219 24.167969 L 31.925781 24.167969 L 31.925781 28.773438 L 27.074219 28.773438 Z M 27.074219 24.167969 " clip-rule="nonzero"/></clipPath><clipPath id="c6b9c1eb45"><path d="M 29.460938 24.3125 L 29.910156 25.230469 C 30.082031 25.570312 30.402344 25.800781 30.78125 25.859375 L 31.789062 26.011719 L 31.0625 26.71875 C 30.789062 26.980469 30.671875 27.371094 30.730469 27.742188 L 30.902344 28.75 L 30 28.269531 C 29.671875 28.089844 29.261719 28.089844 28.929688 28.269531 L 28.03125 28.75 L 28.199219 27.742188 C 28.269531 27.371094 28.140625 26.992188 27.871094 26.71875 L 27.140625 26.011719 L 28.152344 25.859375 C 28.519531 25.800781 28.851562 25.570312 29.011719 25.230469 Z M 29.460938 24.3125 " clip-rule="nonzero"/></clipPath></defs><g clip-path="url(#aaf92b5880)"><g clip-path="url(#6351f03c61)"><path fill="#1f1b44" d="M 6.472656 6.46875 L 68.527344 6.46875 L 68.527344 68.527344 L 6.472656 68.527344 Z M 6.472656 6.46875 " fill-opacity="1" fill-rule="nonzero"/></g></g><g clip-path="url(#d96f73f34b)"><g clip-path="url(#bc17bfe759)"><path fill="#1f1b44" d="M 6.472656 6.46875 L 68.527344 6.46875 L 68.527344 68.527344 L 6.472656 68.527344 Z M 6.472656 6.46875 " fill-opacity="1" fill-rule="nonzero"/></g></g><g clip-path="url(#f96bd9b3c3)"><g clip-path="url(#1b63b7c3fb)"><path fill="#e66225" d="M 6.472656 6.46875 L 68.527344 6.46875 L 68.527344 68.527344 L 6.472656 68.527344 Z M 6.472656 6.46875 " fill-opacity="1" fill-rule="nonzero"/></g></g><g clip-path="url(#325eff6172)"><g clip-path="url(#cbb4b53fd0)"><path fill="#e66225" d="M 6.472656 6.46875 L 68.527344 6.46875 L 68.527344 68.527344 L 6.472656 68.527344 Z M 6.472656 6.46875 " fill-opacity="1" fill-rule="nonzero"/></g></g><g clip-path="url(#b48bebd596)"><g clip-path="url(#eba32f1090)"><path fill="#e66225" d="M 6.472656 6.46875 L 68.527344 6.46875 L 68.527344 68.527344 L 6.472656 68.527344 Z M 6.472656 6.46875 " fill-opacity="1" fill-rule="nonzero"/></g></g><g clip-path="url(#29dc5568bd)"><g clip-path="url(#cbe950ddbd)"><path fill="#e66225" d="M 6.472656 6.46875 L 68.527344 6.46875 L 68.527344 68.527344 L 6.472656 68.527344 Z M 6.472656 6.46875 " fill-opacity="1" fill-rule="nonzero"/></g></g><g clip-path="url(#afcf978bd5)"><g clip-path="url(#a868097ae6)"><path fill="#e66225" d="M 6.472656 6.46875 L 68.527344 6.46875 L 68.527344 68.527344 L 6.472656 68.527344 Z M 6.472656 6.46875 " fill-opacity="1" fill-rule="nonzero"/></g></g><g clip-path="url(#5eb1c93e80)"><g clip-path="url(#789a6f9d9e)"><path fill="#e66225" d="M 6.472656 6.46875 L 68.527344 6.46875 L 68.527344 68.527344 L 6.472656 68.527344 Z M 6.472656 6.46875 " fill-opacity="1" fill-rule="nonzero"/></g></g><g clip-path="url(#1b32e545f7)"><g clip-path="url(#74fb70ccce)"><path fill="#e66225" d="M 6.472656 6.46875 L 68.527344 6.46875 L 68.527344 68.527344 L 6.472656 68.527344 Z M 6.472656 6.46875 " fill-opacity="1" fill-rule="nonzero"/></g></g><g clip-path="url(#296c6b8199)"><g clip-path="url(#4848d3c332)"><path fill="#e66225" d="M 6.472656 6.46875 L 68.527344 6.46875 L 68.527344 68.527344 L 6.472656 68.527344 Z M 6.472656 6.46875 " fill-opacity="1" fill-rule="nonzero"/></g></g><g clip-path="url(#f489b41c01)"><g clip-path="url(#024a20a2b9)"><path fill="#e66225" d="M 6.472656 6.46875 L 68.527344 6.46875 L 68.527344 68.527344 L 6.472656 68.527344 Z M 6.472656 6.46875 " fill-opacity="1" fill-rule="nonzero"/></g></g><g clip-path="url(#0a621d2b4e)"><g clip-path="url(#8fd2e4d7f1)"><path fill="#e66225" d="M 6.472656 6.46875 L 68.527344 6.46875 L 68.527344 68.527344 L 6.472656 68.527344 Z M 6.472656 6.46875 " fill-opacity="1" fill-rule="nonzero"/></g></g><g clip-path="url(#35e3b9194b)"><g clip-path="url(#3f220163e4)"><path fill="#e66225" d="M 6.472656 6.46875 L 68.527344 6.46875 L 68.527344 68.527344 L 6.472656 68.527344 Z M 6.472656 6.46875 " fill-opacity="1" fill-rule="nonzero"/></g></g><g clip-path="url(#9094ec87d7)"><g clip-path="url(#c6b9c1eb45)"><path fill="#e66225" d="M 6.472656 6.46875 L 68.527344 6.46875 L 68.527344 68.527344 L 6.472656 68.527344 Z M 6.472656 6.46875 " fill-opacity="1" fill-rule="nonzero"/></g></g></svg>