<svg xmlns="http://www.w3.org/2000/svg" xmlns:xlink="http://www.w3.org/1999/xlink" width="100" zoomAndPan="magnify" viewBox="0 0 75 74.999997" height="100" preserveAspectRatio="xMidYMid meet" version="1.0"><defs><clipPath id="8c8b4cd105"><path d="M 11.300781 11.417969 L 63.707031 11.417969 L 63.707031 63.582031 L 11.300781 63.582031 Z M 11.300781 11.417969 " clip-rule="nonzero"/></clipPath><clipPath id="ea82603c95"><path d="M 37.5 13.355469 C 50.769531 13.355469 61.53125 24.117188 61.53125 37.386719 C 61.53125 50.65625 50.769531 61.417969 37.5 61.417969 C 24.230469 61.417969 13.472656 50.65625 13.472656 37.386719 C 13.472656 24.117188 24.230469 13.355469 37.5 13.355469 Z M 34 11.585938 C 21.28125 13.296875 11.472656 24.195312 11.472656 37.386719 C 11.472656 51.757812 23.121094 63.417969 37.5 63.417969 C 51.882812 63.417969 63.53125 51.757812 63.53125 37.386719 C 63.53125 24.195312 53.722656 13.296875 41 11.585938 Z M 34 11.585938 " clip-rule="nonzero"/></clipPath><clipPath id="48b9de3f44"><path d="M 24 24.21875 L 50.183594 24.21875 L 50.183594 50.542969 L 24 50.542969 Z M 24 24.21875 " clip-rule="nonzero"/></clipPath><clipPath id="ba48d1f2d2"><path d="M 47.992188 36.476562 L 49.609375 36.476562 L 49.609375 36.976562 L 49.109375 36.976562 L 49.109375 34.148438 L 49.609375 34.148438 L 49.3125 34.546875 L 37.441406 25.445312 L 37.742188 25.046875 L 37.460938 25.46875 L 37.210938 25.347656 L 37.0625 24.847656 L 37.0625 25.347656 L 36.78125 25.386719 L 36.390625 25.046875 L 36.691406 25.445312 L 24.820312 34.546875 L 24.519531 34.148438 L 25.019531 34.148438 L 25.019531 36.976562 L 24.519531 36.976562 L 24.519531 36.476562 L 26.640625 36.476562 L 26.640625 49.117188 L 26.140625 49.117188 L 26.640625 49.117188 L 26.78125 49.425781 L 26.949219 49.925781 L 26.949219 49.425781 L 47.179688 49.425781 L 47.179688 49.925781 L 47.179688 49.425781 L 47.492188 49.285156 L 47.992188 49.117188 L 47.492188 49.117188 L 47.492188 36.476562 L 47.992188 36.476562 M 47.992188 37.476562 L 47.992188 36.976562 L 48.492188 36.976562 L 48.492188 49.117188 C 48.492188 49.835938 47.902344 50.425781 47.179688 50.425781 L 26.949219 50.425781 C 26.230469 50.425781 25.640625 49.835938 25.640625 49.117188 L 25.640625 36.976562 L 26.140625 36.976562 L 26.140625 37.476562 L 24.019531 37.476562 L 24.019531 33.898438 L 36.121094 24.625 C 36.390625 24.445312 36.722656 24.335938 37.070312 24.335938 L 37.75 24.445312 L 38.03125 24.636719 L 50.109375 33.898438 L 50.109375 37.476562 Z M 42.640625 26.855469 L 42.640625 24.746094 L 48.5 24.746094 L 48.5 30.105469 L 47.5 30.105469 L 47.5 25.246094 L 48 25.246094 L 48 25.746094 L 43.140625 25.746094 L 43.140625 25.246094 L 43.640625 25.246094 L 43.640625 26.867188 Z M 42.640625 26.855469 " clip-rule="nonzero"/></clipPath><clipPath id="b24c41717f"><path d="M 26.757812 29.53125 L 46.320312 29.53125 L 46.320312 48 L 26.757812 48 Z M 26.757812 29.53125 " clip-rule="nonzero"/></clipPath><clipPath id="e37bcb4da9"><path d="M 32.980469 29.65625 L 26.839844 34.355469 L 26.839844 35.347656 L 28.152344 35.347656 L 28.152344 47.96875 L 46.101562 47.96875 C 29.121094 43.828125 32.980469 29.65625 32.980469 29.65625 " clip-rule="nonzero"/></clipPath><clipPath id="aaa62cec54"><path d="M 28.839844 35.558594 L 30.582031 35.558594 L 30.582031 37.097656 L 28.839844 37.097656 Z M 28.839844 35.558594 " clip-rule="nonzero"/></clipPath></defs><g clip-path="url(#8c8b4cd105)"><g clip-path="url(#ea82603c95)"><path fill="#1f1b44" d="M 6.472656 6.585938 L 68.539062 6.585938 L 68.539062 68.414062 L 6.472656 68.414062 Z M 6.472656 6.585938 " fill-opacity="1" fill-rule="nonzero"/></g></g><g clip-path="url(#48b9de3f44)"><g clip-path="url(#ba48d1f2d2)"><path fill="#1f1b44" d="M 6.472656 6.585938 L 68.539062 6.585938 L 68.539062 68.414062 L 6.472656 68.414062 Z M 6.472656 6.585938 " fill-opacity="1" fill-rule="nonzero"/></g></g><g clip-path="url(#b24c41717f)"><g clip-path="url(#e37bcb4da9)"><path fill="#e66225" d="M 6.472656 6.585938 L 68.539062 6.585938 L 68.539062 68.414062 L 6.472656 68.414062 Z M 6.472656 6.585938 " fill-opacity="1" fill-rule="nonzero"/></g></g><g clip-path="url(#aaa62cec54)"><path fill="#e66225" d="M 6.472656 6.585938 L 68.539062 6.585938 L 68.539062 68.414062 L 6.472656 68.414062 Z M 6.472656 6.585938 " fill-opacity="1" fill-rule="nonzero"/></g></svg>