<svg xmlns="http://www.w3.org/2000/svg" xmlns:xlink="http://www.w3.org/1999/xlink" width="100" zoomAndPan="magnify" viewBox="0 0 75 74.999997" height="100" preserveAspectRatio="xMidYMid meet" version="1.0"><defs><clipPath id="1211f00b56"><path d="M 7.472656 7.53125 L 67.6875 7.53125 L 67.6875 67.46875 L 7.472656 67.46875 Z M 7.472656 7.53125 " clip-rule="nonzero"/></clipPath><clipPath id="24d822ab87"><path d="M 37.5 9.515625 C 52.929688 9.515625 65.429688 22.023438 65.429688 37.445312 C 65.429688 52.867188 52.929688 65.375 37.5 65.375 C 22.070312 65.375 9.570312 52.867188 9.570312 37.445312 C 9.570312 22.023438 22.070312 9.515625 37.5 9.515625 Z M 34.890625 7.625 C 19.578125 8.945312 7.570312 21.796875 7.570312 37.445312 C 7.570312 53.976562 20.96875 67.375 37.5 67.375 C 54.03125 67.375 67.429688 53.976562 67.429688 37.445312 C 67.429688 21.796875 55.417969 8.945312 40.109375 7.625 Z M 34.890625 7.625 " clip-rule="nonzero"/></clipPath><clipPath id="99754394bb"><path d="M 28.179688 39.953125 L 41.53125 39.953125 L 41.53125 53.300781 L 28.179688 53.300781 Z M 28.179688 39.953125 " clip-rule="nonzero"/></clipPath><clipPath id="268d2fbb70"><path d="M 34.941406 53.054688 C 31.328125 53.054688 28.398438 50.117188 28.398438 46.515625 C 28.398438 42.914062 31.328125 39.976562 34.941406 39.976562 C 38.550781 39.976562 41.480469 42.914062 41.480469 46.515625 C 41.480469 50.117188 38.550781 53.054688 34.941406 53.054688 M 34.941406 41.003906 C 31.898438 41.003906 29.429688 43.476562 29.429688 46.515625 C 29.429688 49.554688 31.898438 52.023438 34.941406 52.023438 C 37.980469 52.023438 40.449219 49.554688 40.449219 46.515625 C 40.449219 43.476562 37.980469 41.003906 34.941406 41.003906 " clip-rule="nonzero"/></clipPath><clipPath id="51d5dda2bc"><path d="M 32 43.492188 L 37.988281 43.492188 L 37.988281 49.488281 L 32 49.488281 Z M 32 43.492188 " clip-rule="nonzero"/></clipPath><clipPath id="5e84ae2770"><path d="M 34.941406 49.304688 C 33.398438 49.304688 32.148438 48.054688 32.148438 46.515625 C 32.148438 44.976562 33.398438 43.726562 34.941406 43.726562 C 36.480469 43.726562 37.730469 44.976562 37.730469 46.515625 C 37.730469 48.054688 36.480469 49.304688 34.941406 49.304688 " clip-rule="nonzero"/></clipPath><clipPath id="fda69bd42a"><path d="M 22 24.421875 L 37.714844 24.421875 L 37.714844 32.59375 L 22 32.59375 Z M 22 24.421875 " clip-rule="nonzero"/></clipPath><clipPath id="889b278ccd"><path d="M 22.609375 32.585938 L 22.128906 32.386719 L 22.28125 31.585938 L 27.847656 31.015625 L 28.199219 27.425781 C 28.230469 27.144531 28.480469 26.933594 28.757812 26.964844 L 29.25 27.246094 L 28.890625 30.933594 L 33.058594 30.636719 L 36.179688 26.40625 C 33.898438 26.207031 27.769531 25.714844 22.609375 25.714844 L 22.089844 25.484375 L 22.320312 24.683594 C 29.089844 24.683594 37.097656 25.457031 37.179688 25.464844 L 37.53125 25.59375 L 37.660156 26.136719 L 33.75 31.433594 C 33.660156 31.554688 33.519531 31.636719 33.371094 31.644531 L 28.359375 32.003906 L 22.660156 32.585938 C 22.640625 32.585938 22.628906 32.585938 22.609375 32.585938 " clip-rule="nonzero"/></clipPath><clipPath id="41c962a991"><path d="M 21.914062 22 L 49.703125 22 L 49.703125 45.945312 L 21.914062 45.945312 Z M 21.914062 22 " clip-rule="nonzero"/></clipPath><clipPath id="cd8df7fdb6"><path d="M 42.820312 45.714844 L 42.429688 45.59375 L 41.371094 43.226562 C 40.621094 41.554688 39.199219 40.246094 37.46875 39.636719 L 37.058594 39.246094 L 37.539062 38.566406 C 39.800781 39.367188 41.441406 40.875 42.308594 42.804688 L 43.148438 44.675781 C 44.640625 44.644531 46.289062 44.535156 46.628906 44.386719 L 46.640625 44.375 C 46.660156 44.367188 48.21875 43.214844 48.53125 41.746094 C 48.800781 40.464844 48.25 36.90625 48 35.523438 C 47.550781 34.773438 43.980469 28.746094 42.589844 27.253906 L 42.300781 26.664062 C 42.417969 25.816406 43.191406 25.367188 43.929688 24.925781 L 44.289062 24.714844 C 42.109375 24.003906 34.328125 23.085938 22.828125 23.074219 L 22.769531 23.085938 L 22.449219 23.085938 L 21.917969 22.65625 L 22.019531 22.066406 L 22.609375 22.066406 C 29.167969 22.066406 40.5 22.484375 44.820312 23.664062 L 45.667969 23.894531 C 45.820312 25.023438 45.191406 25.40625 44.460938 25.835938 L 43.519531 26.394531 C 44.929688 28.304688 48.769531 34.835938 48.941406 35.117188 L 48.988281 35.226562 C 49.039062 35.484375 49.917969 40.226562 49.550781 41.996094 C 49.179688 43.765625 47.519531 45.054688 47.28125 45.226562 C 47.078125 45.40625 46.679688 45.566406 44.78125 45.675781 L 42.828125 45.746094 " clip-rule="nonzero"/></clipPath><clipPath id="2c4c466e2b"><path d="M 22 39 L 31.449219 39 L 31.449219 48.125 L 22 48.125 Z M 22 39 " clip-rule="nonzero"/></clipPath><clipPath id="7114bc2987"><path d="M 26.710938 47.996094 L 22.609375 47.996094 C 22.328125 47.996094 22.097656 47.765625 22.097656 47.476562 L 22.328125 46.964844 L 26.257812 46.964844 L 26.578125 44.644531 C 26.878906 42.515625 28.328125 40.457031 30.46875 39.136719 L 31.03125 39.066406 L 31.25 39.867188 C 29.160156 41.15625 27.847656 42.984375 27.597656 44.796875 L 27.210938 47.566406 C 27.167969 47.816406 26.960938 48.003906 26.699219 48.003906 " clip-rule="nonzero"/></clipPath><clipPath id="9804a2a205"><path d="M 40.441406 28.238281 L 45.890625 28.238281 L 45.890625 35 L 40.441406 35 Z M 40.441406 28.238281 " clip-rule="nonzero"/></clipPath><clipPath id="fc842b4a73"><path d="M 45.191406 34.824219 L 45.039062 34.804688 L 41.609375 33.164062 C 41.597656 33.15625 41.589844 33.15625 41.578125 33.144531 C 40.71875 32.664062 40.378906 31.59375 40.800781 30.707031 L 41.75 28.695312 C 41.871094 28.433594 42.179688 28.324219 42.441406 28.445312 L 42.808594 28.875 L 41.738281 31.144531 C 41.550781 31.546875 41.699219 32.015625 42.078125 32.246094 L 45.417969 33.835938 C 45.679688 33.957031 45.78125 34.265625 45.660156 34.523438 L 45.390625 34.816406 " clip-rule="nonzero"/></clipPath><clipPath id="25b5633c1c"><path d="M 42.894531 47.035156 L 49.976562 47.035156 L 49.976562 53.300781 L 42.894531 53.300781 Z M 42.894531 47.035156 " clip-rule="nonzero"/></clipPath><clipPath id="bc1351b1e6"><path d="M 49.308594 53.054688 L 43.488281 53.054688 C 43.339844 53.054688 43.191406 52.984375 43.089844 52.867188 L 42.949219 52.59375 L 43.738281 48.386719 C 43.878906 47.636719 44.539062 47.09375 45.300781 47.09375 L 47.488281 47.09375 C 48.25 47.09375 48.910156 47.636719 49.050781 48.386719 L 49.808594 52.445312 C 49.839844 52.59375 49.800781 52.753906 49.699219 52.867188 L 49.460938 53.054688 M 44.109375 52.023438 L 48.691406 52.023438 L 48.039062 48.574219 C 47.988281 48.316406 47.757812 48.125 47.488281 48.125 L 45.300781 48.125 C 45.03125 48.125 44.800781 48.316406 44.75 48.574219 Z M 44.109375 52.023438 " clip-rule="nonzero"/></clipPath><clipPath id="285feb1127"><path d="M 21.914062 52 L 55.972656 52 L 55.972656 53.300781 L 21.914062 53.300781 Z M 21.914062 52 " clip-rule="nonzero"/></clipPath><clipPath id="c17ecae8c2"><path d="M 55.191406 53.054688 L 22.480469 53.054688 C 22.191406 53.054688 21.960938 52.824219 21.960938 52.535156 L 22.191406 52.015625 L 55.191406 52.015625 C 55.46875 52.015625 55.710938 52.246094 55.710938 52.535156 L 55.480469 53.054688 " clip-rule="nonzero"/></clipPath><clipPath id="b9a6f96838"><path d="M 43.164062 34.773438 L 49.703125 34.773438 L 49.703125 39.953125 L 43.164062 39.953125 Z M 43.164062 34.773438 " clip-rule="nonzero"/></clipPath><clipPath id="bb9e908d8d"><path d="M 48.960938 39.695312 L 48.917969 39.695312 L 44.71875 39.164062 C 43.929688 39.066406 43.339844 38.394531 43.339844 37.605469 L 43.78125 36.316406 L 48.328125 34.867188 C 48.597656 34.773438 48.890625 34.925781 48.980469 35.195312 L 48.917969 35.753906 L 44.757812 37.085938 C 44.53125 37.15625 44.378906 37.367188 44.378906 37.605469 L 44.589844 38.117188 L 49.039062 38.675781 C 49.320312 38.714844 49.519531 38.964844 49.488281 39.253906 L 49.230469 39.707031 " clip-rule="nonzero"/></clipPath></defs><g clip-path="url(#1211f00b56)"><g clip-path="url(#24d822ab87)"><path fill="#1F1B44" d="M 2.570312 2.625 L 72.320312 2.625 L 72.320312 72.375 L 2.570312 72.375 Z M 2.570312 2.625 " fill-opacity="1" fill-rule="nonzero"/></g></g><g clip-path="url(#99754394bb)"><g clip-path="url(#268d2fbb70)"><path fill="#1F1B44" d="M 2.570312 2.625 L 72.320312 2.625 L 72.320312 72.375 L 2.570312 72.375 Z M 2.570312 2.625 " fill-opacity="1" fill-rule="nonzero"/></g></g><g clip-path="url(#51d5dda2bc)"><g clip-path="url(#5e84ae2770)"><path fill="#e76625" d="M 2.570312 2.625 L 72.320312 2.625 L 72.320312 72.375 L 2.570312 72.375 Z M 2.570312 2.625 " fill-opacity="1" fill-rule="nonzero"/></g></g><g clip-path="url(#fda69bd42a)"><g clip-path="url(#889b278ccd)"><path fill="#1F1B44" d="M 2.570312 2.625 L 72.320312 2.625 L 72.320312 72.375 L 2.570312 72.375 Z M 2.570312 2.625 " fill-opacity="1" fill-rule="nonzero"/></g></g><g clip-path="url(#41c962a991)"><g clip-path="url(#cd8df7fdb6)"><path fill="#1F1B44" d="M 2.570312 2.625 L 72.320312 2.625 L 72.320312 72.375 L 2.570312 72.375 Z M 2.570312 2.625 " fill-opacity="1" fill-rule="nonzero"/></g></g><g clip-path="url(#2c4c466e2b)"><g clip-path="url(#7114bc2987)"><path fill="#1F1B44" d="M 2.570312 2.625 L 72.320312 2.625 L 72.320312 72.375 L 2.570312 72.375 Z M 2.570312 2.625 " fill-opacity="1" fill-rule="nonzero"/></g></g><g clip-path="url(#9804a2a205)"><g clip-path="url(#fc842b4a73)"><path fill="#1F1B44" d="M 2.570312 2.625 L 72.320312 2.625 L 72.320312 72.375 L 2.570312 72.375 Z M 2.570312 2.625 " fill-opacity="1" fill-rule="nonzero"/></g></g><g clip-path="url(#25b5633c1c)"><g clip-path="url(#bc1351b1e6)"><path fill="#1F1B44" d="M 2.570312 2.625 L 72.320312 2.625 L 72.320312 72.375 L 2.570312 72.375 Z M 2.570312 2.625 " fill-opacity="1" fill-rule="nonzero"/></g></g><g clip-path="url(#285feb1127)"><g clip-path="url(#c17ecae8c2)"><path fill="#1F1B44" d="M 2.570312 2.625 L 72.320312 2.625 L 72.320312 72.375 L 2.570312 72.375 Z M 2.570312 2.625 " fill-opacity="1" fill-rule="nonzero"/></g></g><g clip-path="url(#b9a6f96838)"><g clip-path="url(#bb9e908d8d)"><path fill="#1F1B44" d="M 2.570312 2.625 L 72.320312 2.625 L 72.320312 72.375 L 2.570312 72.375 Z M 2.570312 2.625 " fill-opacity="1" fill-rule="nonzero"/></g></g></svg>