<svg xmlns="http://www.w3.org/2000/svg" xmlns:xlink="http://www.w3.org/1999/xlink" width="100" zoomAndPan="magnify" viewBox="0 0 75 74.999997" height="100" preserveAspectRatio="xMidYMid meet" version="1.0"><defs><clipPath id="2e5aa86eb2"><path d="M 11.164062 11.214844 L 63.972656 11.214844 L 63.972656 63.785156 L 11.164062 63.785156 Z M 11.164062 11.214844 " clip-rule="nonzero"/></clipPath><clipPath id="75eb1f9f0c"><path d="M 37.5 12.957031 C 51.03125 12.957031 61.996094 23.929688 61.996094 37.453125 C 61.996094 50.976562 51.03125 61.949219 37.5 61.949219 C 23.964844 61.949219 13.003906 50.976562 13.003906 37.453125 C 13.003906 23.929688 23.964844 12.957031 37.5 12.957031 Z M 35.191406 11.300781 C 21.773438 12.464844 11.25 23.726562 11.25 37.453125 C 11.25 51.949219 23 63.703125 37.5 63.703125 C 51.996094 63.703125 63.75 51.949219 63.75 37.453125 C 63.75 23.734375 53.226562 12.464844 39.804688 11.300781 Z M 35.191406 11.300781 " clip-rule="nonzero"/></clipPath><clipPath id="9ebede7bd0"><path d="M 22 20.296875 L 52.980469 20.296875 L 52.980469 51.597656 L 22 51.597656 Z M 22 20.296875 " clip-rule="nonzero"/></clipPath><clipPath id="9988d2b8e5"><path d="M 43.105469 36.015625 C 43.078125 36.007812 48.394531 38.875 50.488281 40.566406 L 51.855469 42.128906 C 52.542969 43.222656 52.855469 44.503906 52.855469 45.769531 L 52.199219 45.769531 L 52.855469 45.769531 L 52.855469 51.484375 L 22.800781 51.484375 L 22.800781 50.171875 L 52.199219 50.171875 L 52.199219 50.828125 L 51.542969 50.828125 L 51.542969 45.757812 C 51.542969 44.707031 51.277344 43.679688 50.742188 42.8125 L 51.304688 42.460938 L 50.742188 42.8125 C 50.445312 42.339844 50.085938 41.925781 49.664062 41.585938 L 50.078125 41.074219 L 49.664062 41.585938 C 47.683594 39.988281 42.5 37.179688 42.472656 37.164062 Z M 32.527344 37.171875 C 32.5 37.179688 27.316406 39.996094 25.335938 41.59375 L 24.921875 41.085938 L 25.335938 41.59375 C 24.914062 41.933594 24.546875 42.355469 24.257812 42.820312 C 23.710938 43.679688 23.457031 44.714844 23.457031 45.757812 L 22.800781 45.757812 L 23.457031 45.757812 L 23.457031 50.820312 L 22.140625 50.820312 L 22.140625 45.757812 C 22.140625 44.496094 22.457031 43.214844 23.140625 42.117188 L 23.703125 42.46875 L 23.140625 42.117188 C 23.511719 41.53125 23.964844 41.003906 24.511719 40.566406 C 26.605469 38.882812 31.921875 36.007812 31.894531 36.015625 Z M 45.558594 30.15625 C 45.558594 35.453125 42.078125 40.003906 37.5 40.003906 C 32.921875 40.003906 29.4375 35.453125 29.4375 30.15625 L 30.097656 30.15625 L 29.4375 30.15625 C 29.4375 24.859375 32.921875 20.304688 37.5 20.304688 L 37.5 20.964844 L 37.5 20.304688 C 42.078125 20.304688 45.558594 24.859375 45.558594 30.15625 L 44.902344 30.15625 L 45.558594 30.15625 M 44.246094 30.15625 C 44.246094 25.304688 41.09375 21.621094 37.5 21.621094 C 33.902344 21.621094 30.753906 25.304688 30.753906 30.15625 C 30.753906 35.007812 33.902344 38.691406 37.5 38.691406 C 41.09375 38.691406 44.246094 35.007812 44.246094 30.15625 Z M 44.246094 30.15625 " clip-rule="nonzero"/></clipPath><clipPath id="addf155e63"><path d="M 33.148438 38.695312 L 41.75 38.695312 L 41.75 46.339844 L 33.148438 46.339844 Z M 33.148438 38.695312 " clip-rule="nonzero"/></clipPath><clipPath id="76e5376146"><path d="M 37.875 42.050781 L 41.367188 44.46875 L 40.992188 45.011719 L 40.332031 45.011719 L 40.332031 42.582031 L 40.992188 42.582031 L 40.332031 42.582031 L 40.332031 40.164062 L 40.992188 40.164062 L 41.367188 40.707031 L 37.875 43.128906 L 37.5 42.582031 L 37.875 42.039062 M 37.121094 43.117188 L 36.34375 42.574219 L 41.640625 38.890625 L 41.640625 46.257812 L 37.121094 43.128906 Z M 37.875 43.117188 L 33.351562 46.265625 L 33.351562 42.582031 L 34.007812 42.582031 L 33.351562 42.582031 L 33.351562 38.898438 L 38.648438 42.582031 L 37.867188 43.128906 M 37.113281 42.050781 L 37.492188 42.59375 L 37.113281 43.136719 L 33.621094 40.714844 L 34 40.171875 L 34.65625 40.171875 L 34.65625 45.023438 L 34 45.023438 L 33.621094 44.476562 L 37.113281 42.058594 Z M 37.113281 42.050781 " clip-rule="nonzero"/></clipPath><clipPath id="2e0935fdb8"><path d="M 30.757812 23.640625 L 43.425781 23.640625 L 43.425781 27.703125 L 30.757812 27.703125 Z M 30.757812 23.640625 " clip-rule="nonzero"/></clipPath><clipPath id="0cb8e59bf9"><path d="M 31.886719 24.402344 C 32.542969 25.035156 33.367188 25.480469 34.253906 25.683594 C 35.121094 25.875 36.007812 25.816406 36.691406 25.417969 L 37.027344 25.988281 L 36.691406 25.417969 C 37.296875 25.070312 37.753906 24.464844 38.28125 23.746094 L 39.339844 24.515625 C 38.839844 25.199219 38.234375 26.035156 37.351562 26.550781 C 36.296875 27.15625 35.050781 27.210938 33.964844 26.964844 L 34.105469 26.324219 L 33.964844 26.964844 C 32.84375 26.710938 31.796875 26.148438 30.964844 25.351562 Z M 37.910156 25.339844 C 38.445312 25.953125 39.261719 26.324219 40.078125 26.339844 C 40.894531 26.347656 41.710938 26 42.261719 25.402344 L 43.226562 26.296875 C 42.417969 27.164062 41.246094 27.675781 40.0625 27.664062 L 40.070312 27.007812 L 40.0625 27.664062 C 38.875 27.648438 37.710938 27.113281 36.921875 26.21875 Z M 37.910156 25.339844 " clip-rule="nonzero"/></clipPath><clipPath id="0f1d94c700"><path d="M 41.035156 40.367188 L 50.832031 40.367188 L 50.832031 49.449219 L 41.035156 49.449219 Z M 41.035156 40.367188 " clip-rule="nonzero"/></clipPath><clipPath id="b3555ed6a4"><path d="M 50.761719 45.757812 C 50.761719 44.820312 50.523438 43.941406 50.078125 43.234375 L 49.515625 42.480469 C 48.542969 41.6875 47.558594 41.050781 46.535156 40.417969 L 46.628906 40.644531 C 47.050781 41.539062 47.472656 42.3125 47.699219 43.152344 C 47.929688 43.996094 47.929688 44.933594 47.480469 45.6875 C 47 46.503906 46.085938 46.953125 45.183594 47.230469 L 42.5 48.117188 C 41.9375 48.417969 41.457031 48.855469 41.085938 49.371094 L 50.761719 49.371094 Z M 50.761719 45.757812 " clip-rule="nonzero"/></clipPath></defs><g clip-path="url(#2e5aa86eb2)"><g clip-path="url(#75eb1f9f0c)"><path fill="#1F1B44" d="M 6.863281 6.914062 L 68.035156 6.914062 L 68.035156 68.085938 L 6.863281 68.085938 Z M 6.863281 6.914062 " fill-opacity="1" fill-rule="nonzero"/></g></g><g clip-path="url(#9ebede7bd0)"><g clip-path="url(#9988d2b8e5)"><path fill="#1F1B44" d="M 6.863281 6.914062 L 68.035156 6.914062 L 68.035156 68.085938 L 6.863281 68.085938 Z M 6.863281 6.914062 " fill-opacity="1" fill-rule="nonzero"/></g></g><g clip-path="url(#addf155e63)"><g clip-path="url(#76e5376146)"><path fill="#1F1B44" d="M 6.863281 6.914062 L 68.035156 6.914062 L 68.035156 68.085938 L 6.863281 68.085938 Z M 6.863281 6.914062 " fill-opacity="1" fill-rule="nonzero"/></g></g><g clip-path="url(#2e0935fdb8)"><g clip-path="url(#0cb8e59bf9)"><path fill="#1F1B44" d="M 6.863281 6.914062 L 68.035156 6.914062 L 68.035156 68.085938 L 6.863281 68.085938 Z M 6.863281 6.914062 " fill-opacity="1" fill-rule="nonzero"/></g></g><g clip-path="url(#0f1d94c700)"><g clip-path="url(#b3555ed6a4)"><path fill="#e76625" d="M 6.863281 6.914062 L 68.035156 6.914062 L 68.035156 68.085938 L 6.863281 68.085938 Z M 6.863281 6.914062 " fill-opacity="1" fill-rule="nonzero"/></g></g></svg>