<svg xmlns="http://www.w3.org/2000/svg" xmlns:xlink="http://www.w3.org/1999/xlink" width="100" zoomAndPan="magnify" viewBox="0 0 75 74.999997" height="100" preserveAspectRatio="xMidYMid meet" version="1.0"><defs><clipPath id="34fa40cd7b"><path d="M 7.472656 7.53125 L 67.6875 7.53125 L 67.6875 67.46875 L 7.472656 67.46875 Z M 7.472656 7.53125 " clip-rule="nonzero"/></clipPath><clipPath id="fd176eb632"><path d="M 37.5 9.515625 C 52.929688 9.515625 65.429688 22.015625 65.429688 37.445312 C 65.429688 52.875 52.929688 65.375 37.5 65.375 C 22.070312 65.375 9.570312 52.867188 9.570312 37.445312 C 9.570312 22.023438 22.070312 9.515625 37.5 9.515625 Z M 34.898438 7.625 C 19.578125 8.945312 7.570312 21.796875 7.570312 37.445312 C 7.570312 53.976562 20.96875 67.375 37.5 67.375 C 54.03125 67.375 67.429688 53.976562 67.429688 37.445312 C 67.429688 21.796875 55.417969 8.945312 40.109375 7.625 Z M 34.898438 7.625 " clip-rule="nonzero"/></clipPath><clipPath id="7ae1ee6ce0"><path d="M 17.007812 23.058594 L 54.335938 23.058594 L 54.335938 51.667969 L 17.007812 51.667969 Z M 17.007812 23.058594 " clip-rule="nonzero"/></clipPath><clipPath id="427026cd8f"><path d="M 38.078125 45.65625 C 39.019531 43.996094 38.78125 41.855469 37.371094 40.445312 C 36.03125 39.105469 34.039062 38.824219 32.417969 39.59375 L 31.941406 39.824219 L 22.148438 30.035156 L 22.679688 29.503906 L 23.210938 30.035156 L 18.667969 34.574219 L 18.140625 34.046875 L 18.667969 33.515625 L 20.917969 35.765625 L 20.390625 36.296875 L 19.859375 35.765625 L 21.410156 34.214844 L 23.890625 36.695312 L 23.359375 37.226562 L 22.828125 36.695312 L 24.488281 35.035156 L 30.609375 41.15625 L 30.378906 41.636719 C 29.609375 43.253906 29.890625 45.246094 31.230469 46.585938 C 32.640625 47.996094 34.789062 48.234375 36.441406 47.296875 L 37.179688 48.59375 C 34.949219 49.855469 32.070312 49.546875 30.167969 47.644531 L 30.699219 47.117188 L 30.167969 47.644531 C 28.371094 45.84375 27.988281 43.164062 29.03125 40.996094 L 29.710938 41.316406 L 29.179688 41.84375 L 23.960938 36.625 L 24.488281 36.09375 L 25.019531 36.625 L 23.359375 38.285156 L 20.878906 35.804688 L 21.410156 35.273438 L 21.941406 35.804688 L 20.390625 37.355469 L 17.078125 34.046875 L 19.757812 31.367188 L 20.289062 31.894531 L 19.757812 31.367188 L 22.691406 28.433594 L 25.46875 31.214844 L 24.941406 31.746094 L 25.46875 31.214844 L 27.417969 33.164062 L 26.890625 33.695312 L 27.417969 33.164062 L 32.628906 38.375 L 32.097656 38.90625 L 31.78125 38.226562 C 33.949219 37.183594 36.628906 37.566406 38.429688 39.367188 L 37.898438 39.894531 L 38.429688 39.367188 C 40.328125 41.265625 40.648438 44.144531 39.378906 46.375 Z M 20.878906 34.746094 L 23.121094 32.503906 L 24.179688 33.566406 L 21.941406 35.804688 Z M 40.269531 25.015625 L 36.25 29.035156 L 35.71875 28.503906 L 36.25 29.035156 L 36 29.707031 L 35.71875 30.484375 L 36.25 29.957031 L 44.667969 38.367188 C 44.917969 38.617188 45.339844 38.617188 45.589844 38.367188 L 49.609375 34.34375 L 50.140625 34.875 L 49.609375 34.34375 L 49.859375 33.675781 L 50.140625 32.894531 L 49.609375 33.425781 L 41.191406 25.015625 C 40.941406 24.765625 40.53125 24.765625 40.269531 25.015625 M 39.210938 23.957031 L 39.738281 24.484375 L 39.210938 23.957031 C 40.050781 23.117188 41.410156 23.117188 42.25 23.957031 L 41.71875 24.484375 L 42.25 23.957031 L 50.667969 32.367188 C 51.507812 33.207031 51.507812 34.566406 50.667969 35.40625 L 46.648438 39.425781 L 46.121094 38.894531 L 46.648438 39.425781 C 45.808594 40.265625 44.449219 40.265625 43.609375 39.425781 L 44.140625 38.894531 L 43.609375 39.425781 L 35.191406 31.003906 C 34.347656 30.164062 34.347656 28.804688 35.191406 27.964844 L 39.210938 23.945312 Z M 47.148438 49.296875 C 48.910156 50.457031 50.820312 49.804688 51.910156 48.136719 C 53.140625 46.265625 53.269531 43.105469 50.390625 40.226562 L 47.589844 37.414062 L 48.648438 36.355469 L 51.449219 39.164062 L 50.917969 39.695312 L 51.449219 39.164062 C 54.789062 42.503906 54.808594 46.445312 53.160156 48.957031 C 51.710938 51.15625 48.929688 52.253906 46.320312 50.546875 Z M 35.058594 43.214844 L 39.910156 48.066406 L 39.378906 48.59375 L 39.910156 48.066406 C 42.820312 50.976562 45.46875 50.253906 46.980469 48.746094 C 48.128906 47.59375 48.53125 46.105469 48.167969 45.164062 L 48.871094 44.894531 L 48.167969 45.164062 C 47.769531 44.136719 46.757812 43.855469 45.878906 44.195312 C 45.070312 44.503906 44.460938 45.335938 44.96875 46.65625 L 45.25 47.253906 L 44.871094 48.023438 L 45.488281 47.59375 L 45.917969 48.164062 L 45.039062 49.414062 L 44.507812 48.804688 L 44.257812 48.445312 L 43.738281 47.59375 L 43.578125 47.183594 C 42.75 45.035156 43.828125 43.375 45.347656 42.785156 C 46.828125 42.214844 48.828125 42.644531 49.589844 44.605469 C 50.25 46.304688 49.449219 48.40625 48.070312 49.785156 C 45.988281 51.867188 42.378906 52.605469 38.878906 49.105469 L 34.03125 44.253906 Z M 31.808594 46.117188 C 30.410156 44.707031 30.410156 42.433594 31.808594 41.023438 C 33.21875 39.617188 35.488281 39.625 36.898438 41.023438 L 35.839844 42.085938 C 35.019531 41.265625 33.691406 41.265625 32.871094 42.085938 L 32.339844 41.554688 L 32.871094 42.085938 C 32.050781 42.90625 32.050781 44.234375 32.871094 45.054688 Z M 31.808594 46.117188 " clip-rule="nonzero"/></clipPath><clipPath id="d949cc850c"><path d="M 43.4375 32.324219 L 49.160156 32.324219 L 49.160156 38 L 43.4375 38 Z M 43.4375 32.324219 " clip-rule="nonzero"/></clipPath><clipPath id="5fd0877489"><path d="M 43.609375 36.265625 L 45.121094 37.773438 L 49.007812 33.886719 L 47.5 32.375 Z M 43.609375 36.265625 " clip-rule="nonzero"/></clipPath></defs><g clip-path="url(#34fa40cd7b)"><g clip-path="url(#fd176eb632)"><path fill="#1F1B44" d="M 2.570312 2.625 L 72.320312 2.625 L 72.320312 72.375 L 2.570312 72.375 Z M 2.570312 2.625 " fill-opacity="1" fill-rule="nonzero"/></g></g><g clip-path="url(#7ae1ee6ce0)"><g clip-path="url(#427026cd8f)"><path fill="#1F1B44" d="M 2.570312 2.625 L 72.320312 2.625 L 72.320312 72.375 L 2.570312 72.375 Z M 2.570312 2.625 " fill-opacity="1" fill-rule="nonzero"/></g></g><g clip-path="url(#d949cc850c)"><g clip-path="url(#5fd0877489)"><path fill="#e76625" d="M 2.570312 2.625 L 72.320312 2.625 L 72.320312 72.375 L 2.570312 72.375 Z M 2.570312 2.625 " fill-opacity="1" fill-rule="nonzero"/></g></g></svg>