<svg xmlns="http://www.w3.org/2000/svg" xmlns:xlink="http://www.w3.org/1999/xlink" width="100" zoomAndPan="magnify" viewBox="0 0 75 74.999997" height="100" preserveAspectRatio="xMidYMid meet" version="1.0"><defs><clipPath id="589f6c52f1"><path d="M 7.472656 7.527344 L 67.6875 7.527344 L 67.6875 67.46875 L 7.472656 67.46875 Z M 7.472656 7.527344 " clip-rule="nonzero"/></clipPath><clipPath id="c8fa8e7268"><path d="M 37.5 9.515625 C 52.929688 9.515625 65.429688 22.023438 65.429688 37.445312 C 65.429688 52.863281 52.929688 65.375 37.5 65.375 C 22.070312 65.375 9.570312 52.875 9.570312 37.445312 C 9.570312 22.015625 22.078125 9.515625 37.5 9.515625 Z M 34.910156 7.625 C 19.589844 8.945312 7.570312 21.785156 7.570312 37.445312 C 7.570312 53.976562 20.96875 67.375 37.5 67.375 C 54.027344 67.375 67.429688 53.976562 67.429688 37.445312 C 67.429688 21.785156 55.410156 8.945312 40.097656 7.625 Z M 34.910156 7.625 " clip-rule="nonzero"/></clipPath><clipPath id="9ed79a95ca"><path d="M 20.007812 24.421875 L 54.882812 24.421875 L 54.882812 52.484375 L 20.007812 52.484375 Z M 20.007812 24.421875 " clip-rule="nonzero"/></clipPath><clipPath id="9675b48ecc"><path d="M 49.320312 52.324219 L 30.980469 52.324219 L 30.980469 47.34375 L 31.730469 47.34375 L 30.980469 47.34375 C 30.980469 44.886719 32.980469 42.953125 35.359375 42.953125 L 35.808594 42.976562 L 35.917969 43.753906 L 36.019531 43.015625 L 46.707031 44.40625 L 46.609375 45.144531 L 46.039062 45.636719 C 45.957031 45.535156 44.730469 44.042969 44.730469 41.113281 C 44.730469 38.683594 45.570312 35.355469 48.480469 31.09375 L 48.75 30.695312 L 52.96875 31.445312 C 53.757812 31.585938 54.277344 32.34375 54.140625 33.136719 L 54.140625 33.175781 L 51.289062 46.195312 L 49.820312 45.875 L 52.667969 32.855469 L 53.398438 33.015625 L 52.667969 32.863281 L 52.679688 32.914062 L 52.839844 32.183594 L 52.707031 32.925781 L 48.96875 32.253906 L 49.097656 31.515625 L 49.71875 31.933594 C 46.9375 36.003906 46.230469 39.054688 46.230469 41.113281 C 46.230469 43.59375 47.257812 44.753906 47.179688 44.664062 L 48.4375 46.144531 L 35.808594 44.496094 C 35.660156 44.476562 35.507812 44.464844 35.359375 44.464844 C 33.800781 44.464844 32.480469 45.734375 32.480469 47.355469 L 32.480469 51.585938 L 31.730469 51.585938 L 31.730469 50.824219 L 49.328125 50.824219 Z M 48.347656 31.65625 C 48.347656 31.636719 48.179688 30.734375 48.179688 29.59375 C 48.179688 28.535156 48.320312 27.125 48.988281 26.003906 L 49.640625 25.214844 L 50.429688 25.636719 L 50.058594 24.984375 C 51.777344 24.023438 53.648438 24.875 54.4375 26.292969 C 54.839844 27.003906 54.988281 27.875 54.75 28.773438 L 53.777344 32.414062 L 52.328125 32.035156 L 53.300781 28.394531 L 54.019531 28.585938 L 53.300781 28.394531 L 53.347656 27.425781 L 53.128906 27.035156 C 52.660156 26.195312 51.648438 25.816406 50.789062 26.292969 L 50.398438 26.574219 L 49.640625 26.386719 L 50.289062 26.765625 L 49.6875 29.585938 C 49.6875 30.605469 49.839844 31.386719 49.839844 31.363281 Z M 52.96875 48.675781 C 52.96875 50.695312 51.328125 52.335938 49.308594 52.335938 C 47.289062 52.335938 45.648438 50.695312 45.648438 48.675781 L 46.398438 48.675781 L 45.648438 48.675781 C 45.648438 46.65625 47.289062 45.015625 49.308594 45.015625 L 49.308594 45.765625 L 49.308594 45.015625 C 51.328125 45.015625 52.96875 46.65625 52.96875 48.675781 L 52.21875 48.675781 L 52.96875 48.675781 M 51.46875 48.675781 C 51.46875 47.484375 50.5 46.515625 49.308594 46.515625 C 48.117188 46.515625 47.148438 47.484375 47.148438 48.675781 C 47.148438 49.863281 48.117188 50.835938 49.308594 50.835938 C 50.5 50.835938 51.46875 49.863281 51.46875 48.675781 Z M 35.507812 36.65625 L 33.4375 29.804688 C 33.378906 29.59375 33.160156 29.476562 32.949219 29.542969 L 32.617188 29.824219 L 34.75 36.875 L 34.027344 37.09375 L 34.75 36.875 L 34.910156 37.125 L 35.058594 37.15625 L 35.167969 37.164062 L 35.238281 37.144531 L 35.558594 36.863281 L 35.5 36.65625 M 36.9375 36.226562 L 36.21875 36.445312 L 36.9375 36.226562 C 37.238281 37.226562 36.679688 38.285156 35.667969 38.585938 L 35.449219 37.863281 L 35.667969 38.585938 L 35.058594 38.695312 L 34.910156 37.90625 L 34.769531 38.644531 L 33.507812 38.035156 L 31.230469 30.484375 L 31.949219 30.265625 L 31.230469 30.484375 C 30.929688 29.484375 31.5 28.425781 32.488281 28.125 L 32.710938 28.84375 L 32.488281 28.125 C 33.488281 27.824219 34.550781 28.394531 34.847656 29.394531 L 34.128906 29.613281 L 34.847656 29.394531 L 36.917969 36.246094 Z M 29.199219 34.003906 L 32.710938 33.074219 L 33.089844 34.523438 L 29.578125 35.453125 Z M 31.730469 52.324219 L 26.949219 52.324219 C 25.417969 52.324219 23.949219 51.644531 22.980469 50.433594 L 22.570312 49.875 L 22.398438 49.554688 C 20.46875 45.773438 23.867188 43.144531 23.929688 43.105469 L 23.9375 43.105469 L 24.398438 43.703125 L 23.898438 43.144531 L 26.679688 40.675781 L 27.179688 41.234375 L 26.679688 40.675781 C 28.140625 39.375 28.890625 37.453125 28.699219 35.503906 L 28.6875 35.453125 L 29.4375 35.386719 L 28.6875 35.453125 L 28.640625 35.175781 L 27.007812 31.835938 L 27.679688 31.503906 L 27.007812 31.84375 L 26.277344 31.144531 L 21.339844 32.175781 L 21.039062 30.703125 L 25.488281 29.785156 L 25.640625 30.515625 L 25.488281 29.785156 C 26.648438 29.542969 27.828125 30.113281 28.359375 31.175781 L 29.917969 34.386719 L 29.25 34.714844 L 29.917969 34.386719 L 30.148438 34.984375 L 30.1875 35.355469 L 29.4375 35.425781 L 30.1875 35.355469 C 30.429688 37.773438 29.5 40.175781 27.679688 41.792969 L 24.859375 44.292969 C 24.730469 44.394531 22.410156 46.265625 23.75 48.875 L 23.078125 49.214844 L 23.75 48.875 L 24.007812 49.316406 L 23.589844 49.984375 L 24.179688 49.515625 C 24.847656 50.355469 25.878906 50.835938 26.96875 50.835938 L 31.75 50.835938 Z M 25.539062 43.324219 C 25.539062 43.375 25.597656 45.90625 25.878906 46.875 L 25.160156 47.085938 L 25.710938 46.574219 L 26.769531 47.703125 L 25.667969 48.726562 L 24.488281 47.464844 L 24.4375 47.292969 C 24.089844 46.085938 24.039062 43.304688 24.039062 43.355469 Z M 21.640625 31.414062 C 21.699219 36.925781 22.128906 42.765625 23.570312 48.496094 L 22.109375 48.855469 C 20.640625 42.976562 20.199219 37.003906 20.140625 31.425781 Z M 21.640625 31.414062 " clip-rule="nonzero"/></clipPath><clipPath id="a956262c07"><path d="M 26.273438 23.332031 L 43.984375 23.332031 L 43.984375 38.863281 L 26.273438 38.863281 Z M 26.273438 23.332031 " clip-rule="nonzero"/></clipPath><clipPath id="5a850b5662"><path d="M 40.039062 29.765625 C 39.570312 28.324219 38.289062 27.042969 36.847656 26.574219 C 38.289062 26.105469 39.570312 24.824219 40.039062 23.386719 C 40.507812 24.824219 41.789062 26.105469 43.230469 26.574219 C 41.789062 27.042969 40.507812 28.324219 40.039062 29.765625 M 28.570312 27.84375 C 28.238281 26.835938 27.339844 25.945312 26.339844 25.613281 C 27.347656 25.285156 28.238281 24.386719 28.570312 23.386719 C 28.898438 24.394531 29.800781 25.285156 30.800781 25.613281 C 29.789062 25.945312 28.890625 26.84375 28.570312 27.84375 M 41.339844 38.625 C 40.980469 37.535156 40.007812 36.566406 38.917969 36.203125 C 40.007812 35.84375 40.980469 34.875 41.339844 33.785156 C 41.699219 34.875 42.667969 35.84375 43.757812 36.203125 C 42.667969 36.566406 41.699219 37.535156 41.339844 38.625 " clip-rule="nonzero"/></clipPath></defs><g clip-path="url(#589f6c52f1)"><g clip-path="url(#c8fa8e7268)"><path fill="##1F1B44" d="M 2.570312 2.625 L 72.320312 2.625 L 72.320312 72.375 L 2.570312 72.375 Z M 2.570312 2.625 " fill-opacity="1" fill-rule="nonzero"/></g></g><g clip-path="url(#9ed79a95ca)"><g clip-path="url(#9675b48ecc)"><path fill="##1F1B44" d="M 2.570312 2.625 L 72.320312 2.625 L 72.320312 72.375 L 2.570312 72.375 Z M 2.570312 2.625 " fill-opacity="1" fill-rule="nonzero"/></g></g><g clip-path="url(#a956262c07)"><g clip-path="url(#5a850b5662)"><path fill="#e76625" d="M 2.570312 2.625 L 72.320312 2.625 L 72.320312 72.375 L 2.570312 72.375 Z M 2.570312 2.625 " fill-opacity="1" fill-rule="nonzero"/></g></g></svg>